<?xml version="1.0" encoding="UTF-8"?>
<svg version="1.1" xmlns="http://www.w3.org/2000/svg" width="512" height="512">
<path d="M0 0 C2.50208704 0.88054804 5.00489413 1.75864688 7.5090332 2.63330078 C12.52605389 4.38995205 17.53610406 6.16500655 22.54150391 7.95458984 C28.54227103 10.09974371 34.55346362 12.21246106 40.57421875 14.30078125 C42.27539749 14.89117488 43.97656945 15.48158804 45.67773438 16.07202148 C46.50490967 16.35906952 47.33208496 16.64611755 48.18432617 16.94186401 C51.57924999 18.12266209 54.97108245 19.31221121 58.36306763 20.50141907 C72.5593513 25.47676742 86.78568728 30.36455016 101.01169586 35.25404739 C119.05083757 41.45475793 137.08882529 47.65875428 155.10302734 53.93164062 C156.87054175 54.5470376 158.63827272 55.161813 160.40625 55.77587891 C165.04873663 57.38896166 169.68692062 59.013225 174.31716919 60.66113281 C175.80559023 61.19051936 177.29495229 61.71726579 178.78512573 62.24169922 C181.00123227 63.02451259 183.21202865 63.82080318 185.421875 64.62109375 C186.0804097 64.85171005 186.7389444 65.08232635 187.41743469 65.31993103 C192.85422903 67.31811652 195.49944461 69.52750027 198.5 74.4375 C199.56072073 77.64212453 199.65231255 80.66989614 199.70532227 84.03222656 C199.72526749 85.15308655 199.74521271 86.27394653 199.76576233 87.42877197 C199.79083107 89.23520172 199.79083107 89.23520172 199.81640625 91.078125 C199.83718735 92.31544373 199.85796844 93.55276245 199.87937927 94.82757568 C199.93365872 98.10888691 199.98391779 101.39022733 200.03222656 104.67163086 C200.08256092 108.02333104 200.1382636 111.3749372 200.19335938 114.7265625 C200.30044509 121.29680464 200.40223036 127.86711298 200.5 134.4375 C201.17691895 134.75493164 201.85383789 135.07236328 202.55126953 135.39941406 C203.8910083 136.04475098 203.8910083 136.04475098 205.2578125 136.703125 C206.14098145 137.12368164 207.02415039 137.54423828 207.93408203 137.97753906 C213.92503795 141.38628468 218.29228952 147.335157 220.83984375 153.6875 C222.87852894 162.1800111 222.85033765 171.83887711 218.47265625 179.54296875 C216.60022036 183.19008283 216.2602666 185.61739275 217.42456055 189.6003418 C217.90707275 190.76734619 218.38958496 191.93435059 218.88671875 193.13671875 C219.14499954 193.77180862 219.40328033 194.4068985 219.66938782 195.06123352 C220.49669361 197.08769253 221.34162102 199.10623318 222.1875 201.125 C222.73752638 202.46239845 223.28636609 203.80028559 223.83398438 205.13867188 C226.75710357 212.27421157 226.75710357 212.27421157 229.76782227 219.37304688 C232.98994295 226.97756879 234.56211979 234.96105072 231.546875 242.96875 C227.77980229 249.35846827 222.99423708 252.55918818 216.05102539 254.80230713 C211.73950606 255.8758544 207.51668865 255.86546489 203.09375 255.8359375 C202.12900757 255.83880768 201.16426514 255.84167786 200.17028809 255.84463501 C198.14330453 255.84666421 196.11630087 255.84121505 194.08935547 255.82861328 C191.00833846 255.81254349 187.92863306 255.82850144 184.84765625 255.84765625 C182.86718464 255.84567362 180.88671384 255.84182952 178.90625 255.8359375 C177.54179749 255.84504654 177.54179749 255.84504654 176.14978027 255.8543396 C168.67621654 255.7732179 161.22177543 254.66172974 155.5 249.4375 C152.16777181 269.45600748 152.22978209 285.8518995 157.5 305.4375 C159.36785156 305.63472656 159.36785156 305.63472656 161.2734375 305.8359375 C167.40656279 306.48353458 171.64173333 309.25542906 175.75 313.6875 C180.64979632 319.83189699 182.01644697 325.6907955 181.5 333.4375 C181.19096017 334.77667261 180.86360482 336.11210179 180.5 337.4375 C181.799375 337.355 183.09875 337.2725 184.4375 337.1875 C190.79276065 337.22740745 195.78914168 339.01063636 200.55078125 343.2734375 C206.64961076 349.86471908 207.9815514 355.58003449 207.81640625 364.46484375 C207.09171711 371.27334293 203.69743484 376.0861592 198.5 380.4375 C194.03968163 383.50731144 189.74656763 385.01629373 184.5 386.4375 C178.41120575 407.47924012 179.18823959 425.11963488 184.5 446.4375 C185.675625 446.52 186.85125 446.6025 188.0625 446.6875 C195.22145692 447.62182595 199.90589662 451.13080239 204.27734375 456.66796875 C208.35746709 462.57306739 208.21171974 469.51191948 207.5 476.4375 C205.72347992 483.08258461 201.05486632 487.6101247 195.5 491.4375 C191.4296773 493.42506567 188.10922196 493.68956468 183.60162544 493.69476891 C182.91655883 493.69827498 182.23149221 493.70178105 181.525666 493.70539337 C179.22512928 493.71471322 176.92484538 493.70978257 174.6242981 493.70492554 C172.96012696 493.70866155 171.29595758 493.71326287 169.631791 493.71865618 C165.05438948 493.73090854 160.47706094 493.73062306 155.89964676 493.72826743 C150.96414815 493.72785981 146.0286731 493.7388935 141.09318542 493.74838257 C131.41999833 493.76500784 121.7468356 493.77049288 112.07363541 493.77160732 C104.20774636 493.77255746 96.34186536 493.77666605 88.47597885 493.78300858 C66.16980145 493.8006283 43.8636433 493.80984678 21.55745889 493.80834763 C19.75301088 493.80822776 19.75301088 493.80822776 17.91210938 493.80810547 C16.70767256 493.80802371 15.50323574 493.80794195 14.26230083 493.80785771 C-5.24002464 493.8070455 -24.74227274 493.82616473 -44.24457584 493.8543822 C-64.27428188 493.88313363 -84.30395022 493.89692112 -104.33367741 493.89519465 C-115.57666038 493.89453133 -126.81956234 493.89999755 -138.0625267 493.92155075 C-147.63965733 493.93979266 -157.21667026 493.94408548 -166.79381077 493.9305319 C-171.67667869 493.92401631 -176.55932103 493.92383379 -181.44216728 493.9412384 C-185.92091369 493.95703763 -190.39925697 493.95403602 -194.87799396 493.93667014 C-196.48981183 493.93361515 -198.10166032 493.93717539 -199.71344207 493.94839029 C-213.06420543 494.03505954 -225.60389634 492.14307616 -237.625 485.875 C-238.28258301 485.53621826 -238.94016602 485.19743652 -239.61767578 484.84838867 C-258.59347014 474.61849808 -271.37545378 456.95133829 -277.9375 436.625 C-283.08174468 415.29085973 -279.94382521 393.31082616 -269.0625 374.4296875 C-265.3178168 368.34457731 -260.63004302 363.36787069 -255.5 358.4375 C-254.84515625 357.77492188 -254.1903125 357.11234375 -253.515625 356.4296875 C-244.62970039 347.9614773 -233.19844791 342.69421077 -221.5 339.4375 C-224.14380772 336.7135769 -226.76556047 334.21941987 -229.75 331.875 C-243.39819262 320.18502632 -251.1064601 301.92713806 -253.5 284.4375 C-254.94690227 261.19488656 -249.29317321 239.54613799 -233.75 221.6875 C-222.30189329 209.70652346 -206.15749455 199.7960833 -189.5 197.4375 C-187.52 197.4375 -185.54 197.4375 -183.5 197.4375 C-183.5 173.0175 -183.5 148.5975 -183.5 123.4375 C-187.13 122.4475 -190.76 121.4575 -194.5 120.4375 C-196.7434866 119.72828881 -198.98015172 118.99669618 -201.20556641 118.23266602 C-202.39695221 117.82536758 -203.58833801 117.41806915 -204.81582642 116.99842834 C-206.07780556 116.56294876 -207.33971594 116.12726987 -208.6015625 115.69140625 C-209.93185041 115.23426248 -211.26220455 114.77731139 -212.59262085 114.32054138 C-215.36170206 113.36891621 -218.12988846 112.41474393 -220.89746094 111.45874023 C-224.42003586 110.24220448 -227.94491632 109.03251139 -231.4705143 107.82476902 C-234.21179557 106.8847768 -236.95174352 105.94094569 -239.69132614 104.99601555 C-240.98969317 104.54872704 -242.28847328 104.1026355 -243.58769608 103.65783882 C-266.29544969 95.87620862 -266.29544969 95.87620862 -270.609375 88.5546875 C-272.58765633 83.85193101 -272.00877547 78.90729579 -270.375 74.1875 C-266.22047255 68.09419307 -261.22234627 65.56840558 -254.44140625 63.3359375 C-253.64521378 63.0617952 -252.8490213 62.78765289 -252.02870178 62.50520325 C-249.37730381 61.59541185 -246.72004632 60.70415539 -244.0625 59.8125 C-242.17126181 59.16708987 -240.28048461 58.52032756 -238.39013672 57.87231445 C-234.29582737 56.47047784 -230.19923193 55.07560301 -226.10107422 53.68505859 C-216.81370189 50.52911487 -207.54765127 47.31162566 -198.27905273 44.10107422 C-193.52896712 42.45578774 -188.77719374 40.81553598 -184.02368164 39.18017578 C-174.26737643 35.82292635 -164.51430964 32.46296391 -154.8046875 28.97265625 C-153.43550268 28.48444924 -152.06620552 27.99655715 -150.69677734 27.5090332 C-148.3356862 26.66498444 -145.97873513 25.80920173 -143.62744141 24.93823242 C-138.11920304 22.97936349 -134.19901165 21.75230838 -128.5 23.4375 C-127.84 24.0975 -127.18 24.7575 -126.5 25.4375 C-124.6063753 25.3464701 -124.6063753 25.3464701 -122.5 24.75 C-121.70722656 24.55277344 -120.91445312 24.35554688 -120.09765625 24.15234375 C-115.8744715 22.99017411 -111.67991469 21.74645032 -107.5 20.4375 C-107.5 19.365 -107.5 18.2925 -107.5 17.1875 C-106.5 13.4375 -106.5 13.4375 -103.14746094 11.45776367 C-97.94310076 9.07027752 -92.55387183 7.21420766 -87.140625 5.36328125 C-86.07382507 4.99397995 -85.00702515 4.62467865 -83.90789795 4.2441864 C-81.66653435 3.46938961 -79.42426815 2.69719949 -77.18115234 1.92749023 C-73.74509737 0.74831753 -70.31179805 -0.4386067 -66.87890625 -1.62695312 C-64.69546776 -2.38065826 -62.51187916 -3.13392872 -60.328125 -3.88671875 C-59.30205139 -4.24086349 -58.27597778 -4.59500824 -57.21881104 -4.95988464 C-56.26391785 -5.28725113 -55.30902466 -5.61461761 -54.32519531 -5.9519043 C-53.48772766 -6.23962204 -52.65026001 -6.52733978 -51.78741455 -6.82377625 C-33.73938021 -12.65241439 -17.00526362 -6.153764 0 0 Z M178.23754883 99.87109375 C177.32761673 100.185625 176.41768463 100.50015625 175.48017883 100.82421875 C174.48254013 101.17097656 173.48490143 101.51773438 172.45703125 101.875 C171.42301682 102.23335938 170.38900238 102.59171875 169.32365417 102.9609375 C167.11483614 103.72693525 164.90629299 104.493726 162.69799805 105.26123047 C159.40038391 106.4069653 156.10163847 107.54939179 152.80273438 108.69140625 C150.64576243 109.43989987 148.48885955 110.18859256 146.33203125 110.9375 C145.3769014 111.26806396 144.42177155 111.59862793 143.43769836 111.93920898 C132.74856859 115.65964129 122.14044658 119.5682467 111.5 123.4375 C111.5 147.5275 111.5 171.6175 111.5 196.4375 C128.33 196.4375 145.16 196.4375 162.5 196.4375 C168.2592566 187.63061752 168.2592566 187.63061752 166.5 182.4375 C165.86110999 180.92546032 165.19304039 179.42549848 164.5 177.9375 C160.76423029 169.91658269 160.30220017 162.2939341 163.0625 153.8125 C167.3098072 143.35645554 173.2676477 140.01878307 183.5 134.4375 C183.5 122.5575 183.5 110.6775 183.5 98.4375 C181.66712018 98.4375 179.95236987 99.27687773 178.23754883 99.87109375 Z " fill="#020201" transform="translate(279.5,13.5625)"/>
<path d="M0 0 C1.41845 -0.00087326 2.83689969 -0.00262646 4.25534767 -0.00517833 C8.13439354 -0.00963219 12.01332814 -0.00167531 15.89235985 0.00837779 C20.08242472 0.01703839 24.27248363 0.01409029 28.46255493 0.01257324 C35.71593263 0.01152604 42.96927427 0.01778541 50.2226429 0.02904892 C60.7097097 0.0453233 71.19675911 0.05051391 81.68383717 0.0530249 C98.69962996 0.05739896 115.71540355 0.07070023 132.73118591 0.08963013 C149.25755213 0.1079964 165.78391311 0.12214925 182.31028748 0.13064575 C183.32947545 0.1311712 184.34866343 0.13169665 185.39873589 0.13223802 C190.51185251 0.13484815 195.62496918 0.13737555 200.73808587 0.13986182 C243.13675947 0.16058533 285.53541213 0.19580299 327.93406677 0.24050903 C326.18599548 5.70788094 324.27612596 10.99875751 321.93406677 16.24050903 C321.23650121 16.24110612 320.53893565 16.24170321 319.82023174 16.24231839 C278.4512416 16.27823405 237.08232505 16.33490637 195.71340232 16.41842999 C190.7430935 16.42844711 185.77278435 16.43829129 180.80247498 16.44802856 C179.81300091 16.44996994 178.82352684 16.45191131 177.80406871 16.45391151 C161.79526837 16.48490905 145.78648235 16.50190589 129.77765767 16.51370326 C113.34378375 16.52612646 96.90998486 16.55365425 80.47615832 16.5951221 C70.34050605 16.62022401 60.20497826 16.63362873 50.06929448 16.63193861 C43.11320902 16.63190879 36.15725011 16.6465876 29.20121399 16.67267331 C25.19152173 16.68728061 21.18208895 16.69555559 17.17237473 16.68631172 C13.49347178 16.67797443 9.81508828 16.68831589 6.13626202 16.71284565 C4.19138539 16.72114311 2.24645498 16.71004718 0.30159789 16.69801068 C-13.52207157 16.83184997 -25.67527528 20.75520146 -36.09327698 30.04910278 C-45.25785297 39.69496941 -49.51446565 51.94256807 -49.24562073 65.04129028 C-48.60929491 76.37065651 -43.95537106 87.15693223 -36.09327698 95.43191528 C-23.67671201 106.50873528 -9.66930157 108.87014159 6.37547302 108.73660278 C7.91672839 108.73675818 9.45798415 108.7382539 10.99923706 108.74101257 C14.20043087 108.74238499 17.40117022 108.73002247 20.60227966 108.70706177 C24.70124763 108.67846217 28.79947474 108.68148811 32.89849949 108.69415188 C36.06840344 108.70110279 39.23813605 108.6933302 42.40801811 108.68089485 C43.92026551 108.67638981 45.43253133 108.67603526 46.94478035 108.67996025 C49.05040045 108.68287236 51.15499275 108.66637542 53.26048279 108.64456177 C54.45593216 108.63915878 55.65138153 108.6337558 56.88305664 108.62818909 C60.18981794 108.20801172 61.58661543 107.56487847 63.93406677 105.24050903 C64.65915106 102.35729986 64.27044754 100.26793591 63.93406677 97.24050903 C60.3136172 94.82687599 58.66514976 94.99470323 54.35813904 95.00100708 C53.36227028 94.99798584 53.36227028 94.99798584 52.34628296 94.99490356 C50.90417459 94.99135895 49.46205068 94.99212408 48.01994514 94.99667931 C45.72689182 95.00228544 43.43434209 94.99308934 41.1413269 94.97947693 C34.62145426 94.94242803 28.10174686 94.92372263 21.58177185 94.93508911 C17.59040611 94.94099179 13.59974139 94.92242372 9.6085186 94.88920021 C8.09731445 94.88131852 6.58603237 94.88242357 5.07484627 94.89322472 C-6.48322559 94.97219401 -17.73034295 93.42910091 -26.53468323 85.18582153 C-33.36418698 76.50956422 -36.02584658 67.08347393 -35.06593323 56.24050903 C-34.1647716 52.93453322 -32.82087927 50.17455945 -31.06593323 47.24050903 C-30.44718323 46.19056763 -30.44718323 46.19056763 -29.81593323 45.11941528 C-24.89977596 37.73121303 -17.4979563 33.61112623 -9.06593323 31.24050903 C-6.42458377 31.07887888 -3.89708667 31.00581319 -1.26124573 31.04519653 C-0.53726593 31.04802643 0.18671387 31.05085632 0.93263245 31.05377197 C3.22495167 31.06488816 5.5168674 31.08997592 7.80906677 31.11550903 C9.37156109 31.12554994 10.93406159 31.13467384 12.49656677 31.14285278 C16.30922015 31.16479931 20.12157526 31.1992689 23.93406677 31.24050903 C23.94215363 31.79761063 23.95024048 32.35471222 23.95857239 32.92869568 C24.04453946 38.7199613 24.14403938 44.51088153 24.25144958 50.30178833 C24.28976481 52.46383876 24.32461317 54.6259535 24.35594177 56.78811646 C24.40153694 59.89357508 24.45954062 62.99859002 24.52000427 66.10379028 C24.53155548 67.0726265 24.54310669 68.04146271 24.55500793 69.03965759 C24.57487762 69.94036484 24.59474731 70.84107208 24.61521912 71.76907349 C24.62854279 72.56183182 24.64186646 73.35459015 24.65559387 74.17137146 C24.8212026 76.54654011 24.8212026 76.54654011 26.93406677 79.24050903 C33.51252521 80.00123385 38.21366365 78.2900604 44.18406677 75.67800903 C45.74737607 74.99980868 47.31498089 74.33140379 48.88719177 73.67410278 C49.5694281 73.37560425 50.25166443 73.07710571 50.95457458 72.76956177 C56.117365 71.38971879 61.99694814 75.186782 66.73875427 77.15652466 C71.68593645 79.0987169 75.61292313 79.6954553 80.93406677 79.24050903 C92.26985082 67.90472498 83.58564432 47.26794182 83.93406677 31.24050903 C159.50406677 31.24050903 235.07406677 31.24050903 312.93406677 31.24050903 C310.95406677 40.15050903 310.95406677 40.15050903 308.93406677 49.24050903 C308.61030739 53.75529545 308.40075278 57.94335271 308.49656677 62.42800903 C308.51312317 64.08437378 308.51312317 64.08437378 308.53001404 65.77420044 C308.70297566 74.22886185 309.70428066 82.08388211 311.93406677 90.24050903 C312.26972561 91.57325884 312.60350153 92.90648673 312.93406677 94.24050903 C311.2051781 94.24547425 311.2051781 94.24547425 309.44136238 94.25053978 C282.10332297 94.32949588 254.76533297 94.41869224 227.42736889 94.52056064 C224.06518122 94.53308006 220.70299324 94.54551275 217.34080505 94.55789185 C216.67143197 94.56035784 216.00205888 94.56282383 215.31240176 94.56536455 C204.46293514 94.60512738 193.61345807 94.63785909 182.76396097 94.66800885 C171.63781923 94.69908327 160.5117189 94.73782445 149.38562572 94.78329909 C143.13355699 94.8086078 136.88151997 94.83037605 130.6294136 94.843853 C124.75095486 94.8566338 118.87260466 94.87864475 112.99420547 94.90789223 C110.83100555 94.91699928 108.66778813 94.92266546 106.50457001 94.92472267 C103.56241574 94.92802322 100.62057339 94.94344019 97.67848206 94.96203613 C96.81273532 94.9601014 95.94698858 94.95816666 95.0550071 94.9561733 C90.51878586 94.79910065 90.51878586 94.79910065 86.93406677 97.24050903 C86.46193004 101.30146861 86.46193004 101.30146861 86.93406677 105.24050903 C88.71773071 107.24156709 90.22216595 108.14057536 92.88883018 108.51491058 C95.45548399 108.62532429 98.00642137 108.63331033 100.57542419 108.61231995 C102.05864686 108.61805679 102.05864686 108.61805679 103.57183361 108.62390953 C106.89454328 108.63321624 110.21683865 108.62118933 113.53953552 108.60940552 C115.91784336 108.61187263 118.29615011 108.61571013 120.67445374 108.62081909 C126.46923469 108.63025622 132.26390167 108.62636897 138.05868077 108.61759644 C144.80540661 108.60855173 151.55205204 108.61976959 158.29876506 108.63319588 C170.33572542 108.65697045 182.37267002 108.67033384 194.40965271 108.67434692 C195.490279 108.67471423 195.490279 108.67471423 196.59273612 108.67508895 C204.63200973 108.67763539 212.67128213 108.67820138 220.71055603 108.67715454 C223.62653096 108.67682151 226.54250589 108.67653612 229.45848083 108.67630005 C230.17802126 108.67623726 230.89756168 108.67617447 231.63890636 108.67610978 C243.63077826 108.67550527 255.62257741 108.69037277 267.61441898 108.7171331 C274.34833424 108.73153263 281.08207236 108.73765023 287.81599426 108.72408867 C294.14598181 108.71168821 300.47569264 108.71716985 306.80566025 108.73655701 C309.13251555 108.74029603 311.45939335 108.73713853 313.78622818 108.72668648 C316.95540183 108.71339589 320.12357678 108.72445709 323.29270935 108.74171448 C324.21993899 108.7319077 325.14716864 108.72210092 326.10249615 108.71199697 C332.28586756 108.7819396 332.28586756 108.7819396 335.50149536 111.05683994 C337.64296464 114.32108229 337.53655666 116.42473975 336.93406677 120.24050903 C335.28527107 122.87188279 334.59445721 123.82027864 331.93406677 125.24050903 C327.39766067 126.00202165 322.8639213 125.90683687 318.27804565 125.86196899 C316.85509372 125.86629802 315.43214703 125.87281404 314.00921398 125.88132906 C310.09850941 125.89834264 306.18844384 125.88412423 302.27777278 125.86481428 C298.06011582 125.84940403 293.84253802 125.86278515 289.62487793 125.87255859 C281.36032467 125.88709909 273.09601674 125.87483541 264.83148669 125.85344535 C255.20343994 125.82944138 245.5754495 125.83114954 235.94737948 125.83375126 C218.76116897 125.83744345 201.57507399 125.81660267 184.38890076 125.78250122 C167.72318092 125.74944483 151.05758242 125.73523664 134.39183044 125.7414856 C116.24292735 125.74825721 98.09407512 125.74576473 79.94517952 125.72612619 C78.50389725 125.72456697 78.50389725 125.72456697 77.03349816 125.72297624 C75.10377676 125.72088536 73.17405538 125.71877439 71.24433402 125.71664307 C64.5388152 125.70975881 57.83331207 125.70907634 51.12779045 125.71052551 C42.94640635 125.71196877 34.76512096 125.70221084 26.58376955 125.67857915 C22.41218386 125.66675739 18.24073537 125.65956832 14.06913376 125.66541672 C10.24376846 125.67062097 6.41869197 125.66178699 2.59337593 125.64214212 C0.56747016 125.63522056 -1.45846951 125.64281065 -3.48437029 125.65106344 C-21.01849652 125.52154307 -36.38618771 119.60378836 -49.06593323 107.24050903 C-55.15396182 100.28554517 -59.91892921 92.94645446 -63.06593323 84.24050903 C-63.32414856 83.52644897 -63.58236389 82.81238892 -63.84840393 82.07669067 C-66.00399396 75.62015182 -66.57501779 69.71149868 -66.50343323 62.92800903 C-66.49585999 61.91835083 -66.48828674 60.90869263 -66.48048401 59.86843872 C-66.111509 43.11104833 -58.9881078 27.92337327 -46.96046448 16.18582153 C-42.04471118 11.95349792 -36.75293481 8.80300972 -31.00343323 5.86550903 C-30.35511536 5.53156128 -29.70679749 5.19761353 -29.03883362 4.85354614 C-19.57015332 0.23505445 -10.41488405 -0.04651156 0 0 Z " fill="#F0F1F1" transform="translate(108.06593322753906,225.75949096679688)"/>
<path d="M0 0 C4.42013685 0.01139368 8.84003277 0.00462074 13.2601614 -0.00688457 C32.3737265 -0.04905978 51.277017 0.26894456 70.30761719 2.26074219 C71.5913623 2.3811084 72.87510742 2.50147461 74.19775391 2.62548828 C77.21752045 2.91340795 80.23093274 3.23225133 83.24511719 3.57324219 C84.31648926 3.69368896 85.38786133 3.81413574 86.49169922 3.93823242 C96.2446425 5.07250456 105.96513802 6.42181316 115.68261719 7.82324219 C116.42889374 7.9291568 117.17517029 8.03507141 117.94406128 8.14419556 C120.07414153 8.44824028 122.20271297 8.76118856 124.33105469 9.07714844 C125.55743652 9.25705322 126.78381836 9.43695801 128.04736328 9.62231445 C135.03813213 10.99125713 135.03813213 10.99125713 137.30761719 13.26074219 C137.40108634 14.91812662 137.42506696 16.57948863 137.42114258 18.23950195 C137.42106705 19.30052628 137.42099152 20.3615506 137.4209137 21.45472717 C137.41575241 22.60887619 137.41059113 23.76302521 137.40527344 24.95214844 C137.40315102 26.71461159 137.40315102 26.71461159 137.40098572 28.51268005 C137.39536711 32.28289283 137.38281145 36.05304722 137.37011719 39.82324219 C137.36510459 42.37206946 137.36054126 44.92089765 137.35644531 47.46972656 C137.34539163 53.73341851 137.3286354 59.99707618 137.30761719 66.26074219 C136.70040329 66.26660843 136.09318939 66.27247467 135.46757507 66.27851868 C129.15719143 66.34236947 122.84732174 66.42676722 116.53735352 66.52319336 C114.18130258 66.55648238 111.82517113 66.58450179 109.46899414 66.60717773 C106.08542512 66.64065021 102.70259664 66.69296311 99.31933594 66.74902344 C98.26300461 66.75541336 97.20667328 66.76180328 96.11833191 66.76838684 C95.13754166 66.788181 94.1567514 66.80797516 93.14624023 66.82836914 C92.28242233 66.8394722 91.41860443 66.85057526 90.52861023 66.86201477 C87.81120104 67.34986211 86.9125769 68.03707242 85.30761719 70.26074219 C84.7190921 74.87002566 84.7190921 74.87002566 86.52864075 78.95246887 C88.84946185 80.65921903 90.2786052 80.65625617 93.14624023 80.69311523 C94.12703049 80.71290939 95.10782074 80.73270355 96.11833191 80.75309753 C97.17466324 80.75948746 98.23099457 80.76587738 99.31933594 80.77246094 C100.4026973 80.79041214 101.48605865 80.80836334 102.60224915 80.82685852 C106.06649875 80.88109203 109.53060957 80.91489963 112.99511719 80.94824219 C115.34214177 80.98140368 117.689148 81.01589223 120.03613281 81.05175781 C125.79331571 81.13932727 131.5498589 81.19928654 137.30761719 81.26074219 C137.30761719 89.84074219 137.30761719 98.42074219 137.30761719 107.26074219 C50.18761719 107.26074219 -36.93238281 107.26074219 -126.69238281 107.26074219 C-126.69238281 98.68074219 -126.69238281 90.10074219 -126.69238281 81.26074219 C-124.38357117 81.25487595 -122.07475952 81.2490097 -119.69598389 81.2429657 C-97.97612655 81.1863619 -76.25636929 81.11331479 -54.53661728 81.02502728 C-43.36931043 80.98003124 -32.20203574 80.94062539 -21.03466797 80.91430664 C-11.30299585 80.89135737 -1.5714252 80.85799384 8.1601665 80.81204063 C13.31461015 80.78806693 18.46895306 80.76936536 23.62345123 80.76312828 C28.47272504 80.75709616 33.32174094 80.73716438 38.17091942 80.70646667 C39.95270945 80.69765633 41.73453313 80.69397004 43.51634407 80.69573402 C45.9456243 80.69737999 48.37411194 80.68074621 50.80328369 80.6594696 C51.86554479 80.66674097 51.86554479 80.66674097 52.94926572 80.67415923 C55.96724089 80.63041315 58.06845437 80.38868188 60.74929428 78.95457172 C62.65806036 77.20874838 62.65806036 77.20874838 62.74511719 73.76074219 C62.57886293 70.42785926 62.57886293 70.42785926 61.24415112 68.56691265 C58.29889844 66.58037268 55.31828127 66.83874089 51.88557434 66.86201477 C51.12347033 66.85536794 50.36136631 66.84872112 49.57616824 66.84187287 C47.01491831 66.82317627 44.45413279 66.82585257 41.89282227 66.82836914 C40.059884 66.81935603 38.22695178 66.80902993 36.39402771 66.79748535 C31.41087743 66.76983621 26.42784126 66.76062011 21.44462419 66.75463128 C16.23954103 66.74526816 11.03454381 66.71906651 5.82951355 66.69462585 C-4.03017486 66.65090028 -13.88984665 66.62239055 -23.74960262 66.59930247 C-34.97320805 66.57228323 -46.19672729 66.52836974 -57.42027128 66.48301375 C-80.51092844 66.39008072 -103.60161263 66.31843967 -126.69238281 66.26074219 C-126.81894722 58.76784254 -126.90663504 51.27521746 -126.96704102 43.78149414 C-126.99221689 41.23125915 -127.02635986 38.68109652 -127.06958008 36.13110352 C-127.13009313 32.46970795 -127.15856246 28.80926451 -127.18066406 25.14746094 C-127.20647049 24.00363449 -127.23227692 22.85980804 -127.25886536 21.68132019 C-127.25924301 20.62044693 -127.25962067 19.55957367 -127.26000977 18.46655273 C-127.27111282 17.53167526 -127.28221588 16.59679779 -127.2936554 15.6335907 C-126.69238281 13.26074219 -126.69238281 13.26074219 -124.37313843 11.4823761 C-121.05110177 9.96850717 -117.83014313 9.42512508 -114.24316406 8.97949219 C-113.52177246 8.88082352 -112.80038086 8.78215485 -112.05712891 8.68049622 C-109.70775232 8.36241165 -107.35658798 8.0610846 -105.00488281 7.76074219 C-103.36897018 7.54421022 -101.73314711 7.32700062 -100.09741211 7.10913086 C-95.29799636 6.4747555 -90.49570512 5.86472195 -85.69238281 5.26074219 C-84.4278125 5.10041504 -83.16324219 4.94008789 -81.86035156 4.77490234 C-74.47923198 3.85017261 -67.09068196 3.03498114 -59.69238281 2.26074219 C-58.80461151 2.16544724 -57.91684021 2.07015228 -57.00216675 1.9719696 C-38.01473962 -0.00527317 -19.06562464 -0.04962677 0 0 Z " fill="#858390" transform="translate(237.6923828125,103.7392578125)"/>
<path d="M0 0 C2.39568044 0.00141169 4.79136305 0.00061612 7.18704224 -0.00221252 C12.99636362 -0.00349508 18.8052695 0.01809579 24.61449613 0.04997578 C31.3793288 0.08585054 38.14410409 0.09321301 44.90901855 0.09891663 C56.97117135 0.10983554 69.03315421 0.1430441 81.09521484 0.19042969 C92.80614375 0.23638776 104.51702636 0.27174898 116.22802734 0.29296875 C116.95097731 0.29428237 117.67392728 0.29559598 118.41878482 0.29694941 C122.04593687 0.30347502 125.67308924 0.30979346 129.30024183 0.31600893 C159.34847359 0.367767 189.39650688 0.4561404 219.44458008 0.56762695 C219.46645386 2.53554199 219.46645386 2.53554199 219.48876953 4.54321289 C219.54674749 9.41132852 219.62398072 14.27898136 219.70703125 19.14672852 C219.74028289 21.25342294 219.76831407 23.3602065 219.79101562 25.46704102 C219.82455691 28.4957477 219.87687299 31.52363733 219.93286133 34.55200195 C219.94244621 35.96470367 219.94244621 35.96470367 219.95222473 37.40594482 C219.97201889 38.28655579 219.99181305 39.16716675 220.01220703 40.07446289 C220.02331009 40.84723572 220.03441315 41.62000854 220.04585266 42.41619873 C220.55742517 45.17650938 221.49604792 46.56243891 223.44458008 48.56762695 C230.80605641 49.54228959 236.12068418 46.9280972 242.64575195 43.79223633 C246.9167958 41.93125519 249.58223733 41.21544359 254.09301758 42.6887207 C255.55500037 43.28777939 257.00664006 43.91295643 258.44458008 44.56762695 C259.60344727 45.0368457 260.76231445 45.50606445 261.95629883 45.98950195 C264.08385238 46.87925375 266.20884473 47.77515332 268.33129883 48.67700195 C271.8679616 49.68874488 273.93756651 49.63127055 277.44458008 48.56762695 C279.5284087 45.44188402 279.70347967 44.6631014 279.76342773 41.09619141 C279.78348877 40.18293091 279.8035498 39.26967041 279.82421875 38.32873535 C279.84125854 36.89431091 279.84125854 36.89431091 279.85864258 35.4309082 C279.88510864 34.10851135 279.88510864 34.10851135 279.91210938 32.75939941 C279.97517073 29.46649406 280.02136135 26.17328309 280.06958008 22.88012695 C280.19333008 15.51700195 280.31708008 8.15387695 280.44458008 0.56762695 C304.20458008 0.56762695 327.96458008 0.56762695 352.44458008 0.56762695 C351.44458008 7.56762695 351.44458008 7.56762695 350.90942383 10.5402832 C348.4214066 25.11822117 347.95496198 40.43289991 351.78833008 54.7902832 C352.43027808 57.50709885 352.49351605 59.79196686 352.44458008 62.56762695 C351.25904541 62.57173584 350.07351074 62.57584473 348.85205078 62.58007812 C344.44405936 62.60188684 340.03695836 62.65619436 335.62939453 62.72021484 C333.72355701 62.74337972 331.81759175 62.75778702 329.91162109 62.76318359 C327.16789285 62.77248437 324.42616945 62.81349766 321.68286133 62.8605957 C320.83371658 62.85666306 319.98457184 62.85273041 319.10969543 62.84867859 C314.75667765 62.95550162 312.96684775 63.15937934 309.4296875 65.92431641 C307.30231098 68.46638383 307.30231098 68.46638383 306.44458008 71.56762695 C300.17458008 71.56762695 293.90458008 71.56762695 287.44458008 71.56762695 C285.95958008 68.59762695 285.95958008 68.59762695 284.44458008 65.56762695 C281.1396117 63.3643147 280.16877459 63.3186177 276.33004093 63.3226738 C275.26554913 63.3189085 274.20105732 63.3151432 273.10430819 63.3112638 C271.34374886 63.32030498 271.34374886 63.32030498 269.54762268 63.32952881 C268.30395917 63.3279698 267.06029567 63.32641079 265.77894539 63.32480454 C262.31992711 63.3223543 258.86112802 63.32883528 255.40213692 63.338907 C251.67390836 63.34753754 247.94568854 63.34457445 244.217453 63.34275818 C237.75302941 63.34094502 231.28863825 63.34575012 224.82422066 63.35436249 C214.60056047 63.36740013 204.37696373 63.35984494 194.15330505 63.34893799 C190.65520964 63.34545957 187.1571141 63.34211454 183.65901852 63.33880997 C182.78471944 63.33797863 181.91042037 63.33714729 181.00962739 63.33629076 C171.0531319 63.32710344 161.09663585 63.32215646 151.14013672 63.3190918 C150.22985283 63.31880605 149.31956894 63.3185203 148.38170069 63.31822589 C133.64630133 63.31412579 118.91094255 63.32533489 104.17555226 63.3404673 C89.04222654 63.35545107 73.90902321 63.34742778 58.77571529 63.31985021 C49.44511121 63.30370151 40.11489309 63.3063409 30.7843123 63.33332333 C24.38282016 63.35025251 17.98157707 63.34531973 11.5801009 63.32343903 C7.89034485 63.31151232 4.20125837 63.3091896 0.51154709 63.33331871 C-3.49801849 63.35930694 -7.5060372 63.33852287 -11.51560974 63.31365967 C-13.24605432 63.33608518 -13.24605432 63.33608518 -15.01145738 63.35896373 C-24.96408318 63.22909668 -33.51845943 60.03544893 -40.55541992 52.81762695 C-47.4250457 43.89887074 -48.91078485 34.68641715 -47.55541992 23.56762695 C-44.93148492 14.58337025 -38.39935583 7.34670379 -30.25419617 2.87263489 C-20.8118004 -1.22272047 -10.08306785 -0.08319838 0 0 Z " fill="#F0F1F1" transform="translate(94.555419921875,397.432373046875)"/>
<path d="M0 0 C0.66587631 0.22529388 1.33175262 0.45058777 2.01780701 0.68270874 C4.20524127 1.4274227 6.38351794 2.19578603 8.5625 2.96484375 C10.13502158 3.50602513 11.7080335 4.04578351 13.28149414 4.58422852 C17.50559931 6.03484427 21.72194699 7.50683942 25.93682861 8.98400879 C29.45746654 10.21536048 32.9820162 11.43529188 36.50660706 12.65527344 C51.50977837 17.84928738 66.48957052 23.10963059 81.4609375 28.39453125 C84.598801 29.50174863 87.73682637 30.60850569 90.875 31.71484375 C92.02201385 32.11932739 92.02201385 32.11932739 93.19219971 32.53198242 C104.41165865 36.48481657 115.66916341 40.29725299 126.96582031 44.0246582 C140.12439759 48.38433299 153.19436084 52.99354437 166.27189636 57.58943176 C167.10127213 57.88089584 167.93064789 58.17235992 168.78515625 58.47265625 C170.0202166 58.90677071 170.0202166 58.90677071 171.28022766 59.34965515 C179.36407673 62.18864233 187.46091347 64.98943461 195.5625 67.77734375 C196.79105713 68.20015625 198.01961426 68.62296875 199.28540039 69.05859375 C202.04416637 70.0072914 204.8031604 70.95531607 207.5625 71.90234375 C207.5625 72.56234375 207.5625 73.22234375 207.5625 73.90234375 C206.4065332 74.30437012 205.25056641 74.70639648 204.05957031 75.12060547 C198.64337876 77.00474566 193.22788467 78.89088588 187.8125 80.77734375 C186.83886505 81.11637726 185.8652301 81.45541077 184.86209106 81.80471802 C175.07763152 85.21289717 165.29413432 88.62247751 155.54296875 92.125 C154.88271698 92.36206665 154.22246521 92.5991333 153.54220581 92.84338379 C150.53106591 93.92591823 147.52190496 95.01365387 144.51464844 96.10693359 C143.47727539 96.48156738 142.43990234 96.85620117 141.37109375 97.2421875 C140.48220459 97.56566162 139.59331543 97.88913574 138.67749023 98.22241211 C136.5625 98.90234375 136.5625 98.90234375 134.5625 98.90234375 C134.46453125 98.25007813 134.3665625 97.5978125 134.265625 96.92578125 C133.32397647 91.42200795 132.41182172 87.15685723 128.5625 82.90234375 C122.95116484 79.25052246 117.09208518 77.92155933 110.5625 76.90234375 C109.56887451 76.74064697 108.57524902 76.5789502 107.55151367 76.41235352 C104.22495727 75.88558311 100.89508411 75.3894754 97.5625 74.90234375 C96.41217285 74.73202637 95.2618457 74.56170898 94.07666016 74.38623047 C84.59271553 73.01442027 75.09346877 71.88532172 65.5625 70.90234375 C64.81663635 70.82502014 64.07077271 70.74769653 63.30230713 70.66802979 C37.57328995 68.05043405 11.84699525 67.61414608 -13.99188995 67.5922699 C-16.39830842 67.58988263 -18.80470772 67.58456678 -21.21112061 67.57897949 C-47.85121859 67.53378858 -74.18808303 68.7989433 -100.625 72.27734375 C-101.46450195 72.38594727 -102.30400391 72.49455078 -103.16894531 72.60644531 C-108.17406232 73.25403307 -113.17665433 73.91856954 -118.17767334 74.5970459 C-120.29579374 74.88319953 -122.41458241 75.1636603 -124.53369141 75.44238281 C-128.00537803 75.90612137 -131.47166107 76.39698057 -134.9375 76.90234375 C-135.90840576 77.0317334 -136.87931152 77.16112305 -137.87963867 77.29443359 C-145.30727701 78.4449592 -150.84471008 80.97714487 -155.875 86.65234375 C-157.85088402 90.7621825 -158.18588468 94.40551159 -158.4375 98.90234375 C-167.03405552 96.69436831 -175.42340357 93.98673195 -183.8203125 91.12109375 C-184.48196285 90.89590561 -185.1436132 90.67071747 -185.82531357 90.43870544 C-189.30968136 89.25256149 -192.79262849 88.06235383 -196.27441406 86.86865234 C-199.86774762 85.63762854 -203.46580778 84.42105549 -207.06506538 83.20748138 C-209.84207305 82.2682784 -212.61541524 81.31860665 -215.38784409 80.36598206 C-216.71420906 79.91229269 -218.04194466 79.46259014 -219.37103653 79.01695251 C-221.21744466 78.39678845 -223.05835206 77.76031827 -224.89892578 77.12304688 C-225.94718536 76.76569458 -226.99544495 76.40834229 -228.07546997 76.04016113 C-228.85493988 75.6646814 -229.63440979 75.28920166 -230.4375 74.90234375 C-230.7675 73.91234375 -231.0975 72.92234375 -231.4375 71.90234375 C-209.96121162 64.35520325 -188.46570374 56.86601685 -166.94497681 49.44647217 C-159.94150811 47.03030211 -152.94050814 44.60698472 -145.93937683 42.18405151 C-140.13592391 40.17672659 -134.32936556 38.1791384 -128.5171051 36.19746399 C-125.56226637 35.18774982 -122.6109369 34.16811196 -119.66067505 33.14511108 C-117.75208444 32.48710973 -115.83887385 31.84255653 -113.92553711 31.19848633 C-112.82089111 30.81329834 -111.71624512 30.42811035 -110.578125 30.03125 C-109.64516602 29.7122876 -108.71220703 29.3933252 -107.75097656 29.06469727 C-105.0582045 27.71177538 -103.93251946 26.50207099 -102.4375 23.90234375 C-102.18663276 20.73501954 -102.18663276 20.73501954 -102.4375 17.90234375 C-99.66863877 16.89657362 -96.89765896 15.89754228 -94.125 14.90234375 C-93.33931641 14.61617187 -92.55363281 14.33 -91.74414062 14.03515625 C-90.98681641 13.76445313 -90.22949219 13.49375 -89.44921875 13.21484375 C-88.75272217 12.96347656 -88.05622559 12.71210937 -87.33862305 12.453125 C-85.4375 11.90234375 -85.4375 11.90234375 -82.4375 11.90234375 C-82.251875 12.54171875 -82.06625 13.18109375 -81.875 13.83984375 C-80.5558329 16.18111152 -80.5558329 16.18111152 -77.61816406 16.78491211 C-71.80539841 17.44086592 -66.45867439 14.83133874 -61.109375 12.84375 C-58.67578172 11.97460806 -56.24218795 11.10546748 -53.80859375 10.23632812 C-50.63047066 9.08624388 -47.45533994 7.92797199 -44.28070068 6.76831055 C-39.95951465 5.19086033 -35.62948768 3.63961971 -31.296875 2.09375 C-30.17255066 1.67501114 -29.04822632 1.25627228 -27.88983154 0.82484436 C-18.10850734 -2.65689721 -9.94013115 -3.43971543 0 0 Z " fill="#858390" transform="translate(255.4375,22.09765625)"/>
<path d="M0 0 C1.63609251 -0.00346241 3.27218268 -0.00823087 4.90826803 -0.01418173 C9.37518878 -0.02664042 13.84191585 -0.02054496 18.30883706 -0.01122308 C23.13700074 -0.00441217 27.96513202 -0.01492365 32.79328918 -0.02316284 C42.23825633 -0.03647851 51.68315181 -0.03363272 61.12812173 -0.02492492 C68.80228409 -0.01814306 76.4764264 -0.01723382 84.1505909 -0.02049637 C85.79038819 -0.02118592 85.79038819 -0.02118592 87.4633127 -0.0218894 C89.68420065 -0.02284858 91.90508858 -0.02382122 94.12597651 -0.02480717 C114.93160752 -0.03335398 135.73719882 -0.02353658 156.54282332 -0.00740607 C174.40011515 0.00600964 192.2573485 0.00365733 210.11463928 -0.01016235 C230.8579187 -0.02620799 251.6011634 -0.03254394 272.34444815 -0.02332556 C274.55491451 -0.02236991 276.76538087 -0.0214268 278.97584724 -0.02049637 C280.06342739 -0.02003354 281.15100753 -0.01957072 282.27154465 -0.01909386 C289.94124064 -0.01650191 297.61091463 -0.02087913 305.28060722 -0.02793503 C314.61996057 -0.03633834 323.95923825 -0.03409398 333.2985829 -0.0180928 C338.06478026 -0.01019636 342.83085132 -0.00714202 347.59704781 -0.01704025 C351.95713244 -0.02595845 356.31697333 -0.02110202 360.67703576 -0.0051076 C362.25683388 -0.00174773 363.83665246 -0.00348081 365.4164375 -0.01073496 C367.55934788 -0.01982266 369.70141704 -0.01053729 371.8442831 0.00342751 C373.03579587 0.00391456 374.22730864 0.00440162 375.45492786 0.00490344 C378.95261391 0.42379607 380.79940451 1.26965226 383.59486389 3.38095093 C385.59486389 6.38095093 385.59486389 6.38095093 385.53236389 9.81845093 C384.39324029 14.14712061 383.327297 15.02446407 379.59486389 17.38095093 C376.44851583 17.87955427 376.44851583 17.87955427 372.82866573 17.87758636 C371.82251067 17.88524441 371.82251067 17.88524441 370.79602924 17.89305717 C368.54385272 17.90532943 366.29278909 17.88906976 364.04064941 17.87301636 C362.41146143 17.87602672 360.78227591 17.88080293 359.15309769 17.88719511 C354.67241128 17.8997242 350.19208215 17.88738671 345.71142042 17.87112021 C340.88027332 17.85796565 336.04916926 17.867909 331.21801758 17.87522888 C322.84377851 17.88491785 314.46964342 17.88043281 306.0954113 17.86680603 C293.97457517 17.84745344 281.85385612 17.85387762 269.73301698 17.86737984 C250.05113663 17.88897447 230.36928387 17.89567209 210.68739319 17.89022827 C209.50908497 17.88990764 208.33077675 17.88958701 207.11676223 17.88925666 C197.559821 17.88654486 188.00288005 17.88311487 178.44593906 17.87965107 C170.10227021 17.87665675 161.75860133 17.8739481 153.41493225 17.87167358 C151.65280456 17.87118532 151.65280456 17.87118532 149.85507833 17.87068719 C130.25591027 17.86574218 110.6567805 17.87643507 91.0576244 17.89824533 C78.97079393 17.91093682 66.88412136 17.90950375 54.79729945 17.88979447 C46.51019866 17.8771731 38.22317782 17.87866173 29.93607711 17.891168 C25.15686671 17.89787141 20.37788986 17.89802115 15.59870148 17.88058662 C11.21818365 17.86470926 6.83807286 17.86739497 2.45756305 17.88443667 C0.87809903 17.88734077 -0.70139546 17.88355836 -2.28082115 17.87217849 C-15.78562574 17.78103689 -26.55357096 20.04961492 -37.40513611 28.38095093 C-38.65617126 29.29940796 -38.65617126 29.29940796 -39.93247986 30.23641968 C-46.93242115 36.30745881 -51.93093151 46.26652073 -53.40513611 55.38095093 C-54.35409931 69.58428534 -52.20944901 81.75298311 -43.40513611 93.38095093 C-37.95923347 99.3285874 -31.84349323 103.32992368 -24.40513611 106.38095093 C-23.62087344 106.7263602 -22.83661077 107.07176947 -22.02858257 107.42764568 C-16.6811068 108.83453185 -11.48011676 108.6592443 -5.97296143 108.64164734 C-4.70813389 108.64547289 -3.44330636 108.64929843 -2.14015073 108.65323991 C1.36361893 108.66351973 4.86728626 108.66133818 8.37106431 108.65705931 C12.15224888 108.65459218 15.9334088 108.6636059 19.71458435 108.6710968 C27.11830466 108.68384446 34.52198871 108.68563755 41.92571815 108.68329654 C47.94100018 108.68151393 53.95627119 108.68326179 59.9715519 108.68752098 C60.82745941 108.68811617 61.68336693 108.68871136 62.56521103 108.68932458 C64.30389764 108.69053631 66.04258424 108.69175045 67.78127084 108.69296696 C84.0839821 108.70384196 100.38667267 108.70167971 116.68938509 108.69558211 C131.61497929 108.69040838 146.54050832 108.70168051 161.46608963 108.72068033 C176.78587837 108.74003286 192.10563622 108.74831958 207.42543727 108.74455708 C216.02882172 108.74264169 224.63215063 108.74516574 233.23552513 108.75927162 C240.55634776 108.7711532 247.87708064 108.77262643 255.19790443 108.76048145 C258.9349929 108.75457106 262.67191693 108.75355263 266.40899467 108.76548386 C270.45400838 108.77824865 274.49862659 108.76793038 278.54364014 108.75517273 C279.73311192 108.76254701 280.9225837 108.7699213 282.14810008 108.77751905 C283.22674226 108.7703125 284.30538445 108.76310596 285.41671276 108.75568104 C286.35098982 108.75573605 287.28526688 108.75579107 288.24785537 108.75584775 C291.05033398 108.30819691 291.9221025 107.63704804 293.59486389 105.38095093 C294.31683551 102.77484016 294.31683551 102.77484016 294.59486389 100.38095093 C294.92486389 101.37095093 295.25486389 102.36095093 295.59486389 103.38095093 C301.86486389 103.38095093 308.13486389 103.38095093 314.59486389 103.38095093 C314.92486389 102.39095093 315.25486389 101.40095093 315.59486389 100.38095093 C315.88361389 101.51532593 316.17236389 102.64970093 316.46986389 103.81845093 C316.84111389 104.99407593 317.21236389 106.16970093 317.59486389 107.38095093 C320.22750941 108.69727369 322.21033664 108.52004754 325.15858459 108.53866577 C326.90598686 108.55405899 326.90598686 108.55405899 328.68869019 108.56976318 C329.95323532 108.57706451 331.21778046 108.58436584 332.52064514 108.59188843 C334.49905612 108.61276847 336.4774671 108.63366587 338.45586681 108.65558815 C343.34384489 108.70878547 348.23183024 108.75293794 353.12001038 108.78231812 C355.85950851 108.79922711 358.59872523 108.82393135 361.33807373 108.85717773 C363.91999918 108.88817386 366.50209513 108.90757145 369.084198 108.91424561 C370.25858932 108.93081207 371.43298065 108.94737854 372.64295959 108.96444702 C374.18944939 108.9765773 374.18944939 108.9765773 375.7671814 108.98895264 C379.06525301 109.44616042 380.92676981 110.41337768 383.59486389 112.38095093 C385.59486389 115.38095093 385.59486389 115.38095093 385.53236389 118.81845093 C384.3930766 123.14774264 383.32834817 124.02457096 379.59486389 126.38095093 C376.43799311 126.88234758 376.43799311 126.88234758 372.80301762 126.88431549 C371.79269622 126.89303614 371.79269622 126.89303614 370.76196429 126.90193295 C368.50033978 126.91655482 366.2397969 126.90263851 363.97817993 126.8888855 C362.34216616 126.89349365 360.70615652 126.89984599 359.07015556 126.90779448 C354.57054219 126.92452439 350.07126727 126.9162247 345.57165253 126.9038496 C340.72000635 126.89481573 335.8684192 126.90876101 331.01678467 126.91976929 C321.50833023 126.9375805 312.0000019 126.93370189 302.49154247 126.92211872 C294.76007719 126.91309013 287.0286473 126.91185794 279.29717827 126.91621399 C277.64736696 126.91713339 277.64736696 126.91713339 275.96422614 126.91807136 C273.72982803 126.91935026 271.49542994 126.92064712 269.26103186 126.92196172 C248.29252685 126.93337638 227.3240917 126.92024243 206.35559814 126.89876026 C188.37713145 126.88091088 170.39876814 126.88397385 152.42030334 126.9024353 C131.54147401 126.92386502 110.66270609 126.93225406 89.7838673 126.91998625 C87.55487534 126.91871208 85.32588338 126.91745459 83.0968914 126.91621399 C81.45188494 126.91528834 81.45188494 126.91528834 79.77364602 126.91434398 C72.05916087 126.91089572 64.34471477 126.91670862 56.63023567 126.9261322 C47.21702104 126.93737789 37.80393974 126.93425914 28.39074028 126.91300923 C23.59104002 126.90252991 18.79156165 126.89832324 13.99186325 126.91160583 C9.59025303 126.92360187 5.18906852 126.91684935 0.78749644 126.89569563 C-0.79737985 126.89125963 -2.38229276 126.89342751 -3.96714514 126.90319878 C-23.63795267 127.01508823 -40.03370333 121.22089581 -54.40513611 107.38095093 C-60.8925655 100.09770333 -65.25114074 92.58319625 -68.40513611 83.38095093 C-68.72353455 82.54563843 -69.04193298 81.71032593 -69.36997986 80.84970093 C-74.54167819 65.40610406 -71.85661252 48.92988795 -65.05357361 34.51766968 C-61.44328103 28.03326149 -56.57566705 22.66188466 -51.40513611 17.38095093 C-50.88693298 16.82665405 -50.36872986 16.27235718 -49.83482361 15.70126343 C-45.9983987 11.98535449 -41.42541385 9.62337873 -36.71763611 7.19345093 C-36.08269226 6.86006714 -35.44774841 6.52668335 -34.79356384 6.18319702 C-23.60213754 0.65082631 -12.27227147 -0.05696287 0 0 Z " fill="#EA5026" transform="translate(86.40513610839844,365.6190490722656)"/>
<path d="M0 0 C1.41845 -0.00087326 2.83689969 -0.00262646 4.25534767 -0.00517833 C8.13439354 -0.00963219 12.01332814 -0.00167531 15.89235985 0.00837779 C20.08242472 0.01703839 24.27248363 0.01409029 28.46255493 0.01257324 C35.71593263 0.01152604 42.96927427 0.01778541 50.2226429 0.02904892 C60.7097097 0.0453233 71.19675911 0.05051391 81.68383717 0.0530249 C98.69962996 0.05739896 115.71540355 0.07070023 132.73118591 0.08963013 C149.25755213 0.1079964 165.78391311 0.12214925 182.31028748 0.13064575 C183.32947545 0.1311712 184.34866343 0.13169665 185.39873589 0.13223802 C190.51185251 0.13484815 195.62496918 0.13737555 200.73808587 0.13986182 C243.13675947 0.16058533 285.53541213 0.19580299 327.93406677 0.24050903 C326.18599548 5.70788094 324.27612596 10.99875751 321.93406677 16.24050903 C321.23650121 16.24110612 320.53893565 16.24170321 319.82023174 16.24231839 C278.4512416 16.27823405 237.08232505 16.33490637 195.71340232 16.41842999 C190.7430935 16.42844711 185.77278435 16.43829129 180.80247498 16.44802856 C179.81300091 16.44996994 178.82352684 16.45191131 177.80406871 16.45391151 C161.79526837 16.48490905 145.78648235 16.50190589 129.77765767 16.51370326 C113.34378375 16.52612646 96.90998486 16.55365425 80.47615832 16.5951221 C70.34050605 16.62022401 60.20497826 16.63362873 50.06929448 16.63193861 C43.11320902 16.63190879 36.15725011 16.6465876 29.20121399 16.67267331 C25.19152173 16.68728061 21.18208895 16.69555559 17.17237473 16.68631172 C13.49347178 16.67797443 9.81508828 16.68831589 6.13626202 16.71284565 C4.19138539 16.72114311 2.24645498 16.71004718 0.30159789 16.69801068 C-13.52207157 16.83184997 -25.67527528 20.75520146 -36.09327698 30.04910278 C-45.25785297 39.69496941 -49.51446565 51.94256807 -49.24562073 65.04129028 C-48.60929491 76.37065651 -43.95537106 87.15693223 -36.09327698 95.43191528 C-23.67671201 106.50873528 -9.66930157 108.87014159 6.37547302 108.73660278 C7.91672839 108.73675818 9.45798415 108.7382539 10.99923706 108.74101257 C14.20043087 108.74238499 17.40117022 108.73002247 20.60227966 108.70706177 C24.70124763 108.67846217 28.79947474 108.68148811 32.89849949 108.69415188 C36.06840344 108.70110279 39.23813605 108.6933302 42.40801811 108.68089485 C43.92026551 108.67638981 45.43253133 108.67603526 46.94478035 108.67996025 C49.05040045 108.68287236 51.15499275 108.66637542 53.26048279 108.64456177 C54.45593216 108.63915878 55.65138153 108.6337558 56.88305664 108.62818909 C60.21146908 108.2052606 61.60944692 107.62815821 63.93406677 105.24050903 C64.74353099 102.13853506 64.74353099 102.13853506 64.93406677 99.24050903 C65.26406677 100.23050903 65.59406677 101.22050903 65.93406677 102.24050903 C72.20406677 102.24050903 78.47406677 102.24050903 84.93406677 102.24050903 C85.26406677 101.25050903 85.59406677 100.26050903 85.93406677 99.24050903 C86.33625427 100.91113403 86.33625427 100.91113403 86.74656677 102.61550903 C87.59215696 106.45891854 87.59215696 106.45891854 90.93406677 108.24050903 C92.89762563 108.53843651 92.89762563 108.53843651 95.0714407 108.49104881 C95.91792878 108.49604751 96.76441686 108.50104621 97.63655609 108.50619638 C98.56669857 108.50153317 99.49684106 108.49686995 100.45516968 108.49206543 C101.44313036 108.49503557 102.43109104 108.49800571 103.44898993 108.50106585 C106.77472151 108.50873253 110.10027787 108.50220091 113.42601013 108.49588013 C115.80416992 108.49862873 118.1823288 108.50230784 120.56048584 108.5068512 C125.68913957 108.5149758 130.81774968 108.51712851 135.94640923 108.51490402 C143.36597904 108.51180942 150.78547241 108.52343439 158.205023 108.53945382 C170.24807958 108.56542582 182.29113623 108.58543968 194.33421326 108.59890747 C195.05519629 108.59971784 195.77617931 108.60052821 196.51901031 108.60136314 C206.75256388 108.61258657 216.98611201 108.61786611 227.2196709 108.62075026 C228.30069066 108.62105625 228.30069066 108.62105625 229.40354919 108.62136841 C230.48325391 108.62166831 230.48325391 108.62166831 231.58477085 108.62197427 C243.58113823 108.62570517 255.57742275 108.64477623 267.57374865 108.67646277 C274.31102273 108.69369536 281.04813508 108.70306879 287.785429 108.69352341 C294.11951963 108.68500857 300.4533172 108.69459533 306.78736687 108.71826363 C309.11582904 108.72360384 311.44431838 108.72205783 313.77276993 108.71322823 C316.94419985 108.70216926 320.11461304 108.7154668 323.28598022 108.73498535 C324.67784787 108.72129837 324.67784787 108.72129837 326.09783405 108.70733488 C332.28567378 108.78177145 332.28567378 108.78177145 335.50191593 111.05726051 C337.64302586 114.32128476 337.53649424 116.42513506 336.93406677 120.24050903 C335.28527107 122.87188279 334.59445721 123.82027864 331.93406677 125.24050903 C327.39766067 126.00202165 322.8639213 125.90683687 318.27804565 125.86196899 C316.85509372 125.86629802 315.43214703 125.87281404 314.00921398 125.88132906 C310.09850941 125.89834264 306.18844384 125.88412423 302.27777278 125.86481428 C298.06011582 125.84940403 293.84253802 125.86278515 289.62487793 125.87255859 C281.36032467 125.88709909 273.09601674 125.87483541 264.83148669 125.85344535 C255.20343994 125.82944138 245.5754495 125.83114954 235.94737948 125.83375126 C218.76116897 125.83744345 201.57507399 125.81660267 184.38890076 125.78250122 C167.72318092 125.74944483 151.05758242 125.73523664 134.39183044 125.7414856 C116.24292735 125.74825721 98.09407512 125.74576473 79.94517952 125.72612619 C78.50389725 125.72456697 78.50389725 125.72456697 77.03349816 125.72297624 C75.10377676 125.72088536 73.17405538 125.71877439 71.24433402 125.71664307 C64.5388152 125.70975881 57.83331207 125.70907634 51.12779045 125.71052551 C42.94640635 125.71196877 34.76512096 125.70221084 26.58376955 125.67857915 C22.41218386 125.66675739 18.24073537 125.65956832 14.06913376 125.66541672 C10.24376846 125.67062097 6.41869197 125.66178699 2.59337593 125.64214212 C0.56747016 125.63522056 -1.45846951 125.64281065 -3.48437029 125.65106344 C-21.01849652 125.52154307 -36.38618771 119.60378836 -49.06593323 107.24050903 C-55.15396182 100.28554517 -59.91892921 92.94645446 -63.06593323 84.24050903 C-63.32414856 83.52644897 -63.58236389 82.81238892 -63.84840393 82.07669067 C-66.00399396 75.62015182 -66.57501779 69.71149868 -66.50343323 62.92800903 C-66.49585999 61.91835083 -66.48828674 60.90869263 -66.48048401 59.86843872 C-66.111509 43.11104833 -58.9881078 27.92337327 -46.96046448 16.18582153 C-42.04471118 11.95349792 -36.75293481 8.80300972 -31.00343323 5.86550903 C-30.35511536 5.53156128 -29.70679749 5.19761353 -29.03883362 4.85354614 C-19.57015332 0.23505445 -10.41488405 -0.04651156 0 0 Z " fill="#B6E445" transform="translate(108.06593322753906,225.75949096679688)"/>
<path d="M0 0 C1.24221313 -0.00845947 1.24221313 -0.00845947 2.50952148 -0.01708984 C3.42282227 -0.02353516 4.33612305 -0.02998047 5.27709961 -0.03662109 C6.68958984 -0.00761719 6.68958984 -0.00761719 8.13061523 0.02197266 C9.54890625 -0.00703125 9.54890625 -0.00703125 10.99584961 -0.03662109 C12.36386719 -0.02695313 12.36386719 -0.02695313 13.75952148 -0.01708984 C14.58653564 -0.0114502 15.4135498 -0.00581055 16.265625 0 C18.56811523 0.64697266 18.56811523 0.64697266 20.17431641 3.14428711 C22.96237775 6.05916899 23.64322479 6.05433779 27.52026367 6.30639648 C29.5723223 6.34749792 31.6250344 6.36168257 33.67749023 6.35400391 C35.30040985 6.37668587 35.30040985 6.37668587 36.95611572 6.39982605 C40.41032599 6.44279871 43.86366397 6.4515507 47.31811523 6.45947266 C49.6605865 6.48260937 52.0030369 6.50797297 54.34545898 6.53564453 C60.08682273 6.60278309 65.82573727 6.6236469 71.56811523 6.64697266 C71.56811523 15.22697266 71.56811523 23.80697266 71.56811523 32.64697266 C-15.55188477 32.64697266 -102.67188477 32.64697266 -192.43188477 32.64697266 C-192.43188477 24.06697266 -192.43188477 15.48697266 -192.43188477 6.64697266 C-188.97199821 6.64483513 -188.97199821 6.64483513 -185.44221497 6.64265442 C-163.7373598 6.62687483 -142.03268452 6.58360112 -120.3279314 6.51488209 C-109.16846845 6.48021396 -98.00912924 6.45487417 -86.84960938 6.45141602 C-77.12411242 6.44837866 -67.39883578 6.42791897 -57.67342395 6.38644809 C-52.52278666 6.36509567 -47.37246275 6.35252902 -42.22178078 6.36081886 C-37.37483316 6.36834476 -32.52852127 6.35259576 -27.68169022 6.31891251 C-25.90193366 6.31066159 -24.12211409 6.31095002 -22.34236336 6.32037544 C-19.91298099 6.33196857 -17.48569216 6.31292622 -15.05647278 6.28620911 C-14.35121155 6.29688237 -13.64595032 6.30755562 -12.91931754 6.31855232 C-9.01771945 6.23842779 -7.57690568 5.77530565 -4.60734081 3.14745617 C-2.43188477 0.64697266 -2.43188477 0.64697266 0 0 Z " fill="#FCCB08" transform="translate(303.431884765625,178.35302734375)"/>
<path d="M0 0 C2.39568044 0.00141169 4.79136305 0.00061612 7.18704224 -0.00221252 C12.99636362 -0.00349508 18.8052695 0.01809579 24.61449613 0.04997578 C31.3793288 0.08585054 38.14410409 0.09321301 44.90901855 0.09891663 C56.97117135 0.10983554 69.03315421 0.1430441 81.09521484 0.19042969 C92.80614375 0.23638776 104.51702636 0.27174898 116.22802734 0.29296875 C116.95097731 0.29428237 117.67392728 0.29559598 118.41878482 0.29694941 C122.04593687 0.30347502 125.67308924 0.30979346 129.30024183 0.31600893 C159.34847359 0.367767 189.39650688 0.4561404 219.44458008 0.56762695 C219.44458008 3.86762695 219.44458008 7.16762695 219.44458008 10.56762695 C218.20990494 10.56909351 216.9752298 10.57056007 215.70314026 10.57207108 C186.38441566 10.6077848 157.06580494 10.66404289 127.74717557 10.74554791 C124.13735899 10.75556518 120.52754196 10.76540934 116.91772461 10.77514648 C116.19908493 10.77708786 115.48044526 10.77902923 114.74002862 10.78102943 C103.10892339 10.81203766 91.47783789 10.82902679 79.84669912 10.84082118 C67.90915326 10.85323885 55.97171081 10.88075413 44.03423023 10.92224002 C37.33032863 10.94510588 30.62658368 10.96053585 23.92263794 10.9595108 C17.6123514 10.95876595 11.30239146 10.97664714 4.99218941 11.00879478 C2.67670747 11.0173115 0.36118898 11.01903175 -1.95430183 11.01342964 C-5.117947 11.00679522 -8.2805514 11.0246983 -11.4440918 11.04864502 C-12.3585076 11.0408846 -13.27292341 11.03312418 -14.21504879 11.0251286 C-21.08187204 11.11702259 -26.67473766 12.67054613 -31.61401367 17.63793945 C-32.06905273 18.31598633 -32.5240918 18.9940332 -32.99291992 19.69262695 C-33.46600586 20.37583008 -33.9390918 21.0590332 -34.42651367 21.76293945 C-37.81328475 27.1770856 -37.01899554 33.36389439 -36.55541992 39.56762695 C-35.27929341 45.0687669 -32.57203896 47.8355413 -27.99291992 51.00512695 C-23.31427572 53.9006791 -19.87267145 54.69252344 -14.37661457 54.69067478 C-12.42392012 54.69366135 -12.42392012 54.69366135 -10.4317773 54.69670826 C-8.97855061 54.69385501 -7.52532411 54.69090941 -6.07209778 54.68788147 C-4.5350827 54.68831728 -2.99806769 54.68919237 -1.46105307 54.69047064 C2.77356378 54.69271368 7.00815548 54.68869689 11.24276912 54.68369257 C15.80513121 54.67938555 20.3674918 54.68083468 24.92985535 54.68159485 C32.83812485 54.68211992 40.74638612 54.67897484 48.65465355 54.67335701 C60.08876746 54.66523978 71.52287738 54.66262656 82.95699386 54.66136902 C101.50681327 54.65917885 120.05662829 54.65251971 138.60644531 54.64306641 C156.62890603 54.63389138 174.65136555 54.62681099 192.67382812 54.62255859 C193.78420231 54.62229587 194.89457649 54.62203315 196.03859838 54.62176246 C201.60886098 54.62045745 207.17912358 54.61919374 212.74938619 54.61795056 C258.98112053 54.60757904 305.21285008 54.58996168 351.44458008 54.56762695 C351.77458008 57.20762695 352.10458008 59.84762695 352.44458008 62.56762695 C351.25904541 62.57173584 350.07351074 62.57584473 348.85205078 62.58007812 C344.44405936 62.60188684 340.03695836 62.65619436 335.62939453 62.72021484 C333.72355701 62.74337972 331.81759175 62.75778702 329.91162109 62.76318359 C327.16789285 62.77248437 324.42616945 62.81349766 321.68286133 62.8605957 C320.83371658 62.85666306 319.98457184 62.85273041 319.10969543 62.84867859 C314.75667765 62.95550162 312.96684775 63.15937934 309.4296875 65.92431641 C307.30231098 68.46638383 307.30231098 68.46638383 306.44458008 71.56762695 C300.17458008 71.56762695 293.90458008 71.56762695 287.44458008 71.56762695 C285.95958008 68.59762695 285.95958008 68.59762695 284.44458008 65.56762695 C281.1396117 63.3643147 280.16877459 63.3186177 276.33004093 63.3226738 C275.26554913 63.3189085 274.20105732 63.3151432 273.10430819 63.3112638 C271.34374886 63.32030498 271.34374886 63.32030498 269.54762268 63.32952881 C268.30395917 63.3279698 267.06029567 63.32641079 265.77894539 63.32480454 C262.31992711 63.3223543 258.86112802 63.32883528 255.40213692 63.338907 C251.67390836 63.34753754 247.94568854 63.34457445 244.217453 63.34275818 C237.75302941 63.34094502 231.28863825 63.34575012 224.82422066 63.35436249 C214.60056047 63.36740013 204.37696373 63.35984494 194.15330505 63.34893799 C190.65520964 63.34545957 187.1571141 63.34211454 183.65901852 63.33880997 C182.78471944 63.33797863 181.91042037 63.33714729 181.00962739 63.33629076 C171.0531319 63.32710344 161.09663585 63.32215646 151.14013672 63.3190918 C150.22985283 63.31880605 149.31956894 63.3185203 148.38170069 63.31822589 C133.64630133 63.31412579 118.91094255 63.32533489 104.17555226 63.3404673 C89.04222654 63.35545107 73.90902321 63.34742778 58.77571529 63.31985021 C49.44511121 63.30370151 40.11489309 63.3063409 30.7843123 63.33332333 C24.38282016 63.35025251 17.98157707 63.34531973 11.5801009 63.32343903 C7.89034485 63.31151232 4.20125837 63.3091896 0.51154709 63.33331871 C-3.49801849 63.35930694 -7.5060372 63.33852287 -11.51560974 63.31365967 C-13.24605432 63.33608518 -13.24605432 63.33608518 -15.01145738 63.35896373 C-24.96408318 63.22909668 -33.51845943 60.03544893 -40.55541992 52.81762695 C-47.4250457 43.89887074 -48.91078485 34.68641715 -47.55541992 23.56762695 C-44.93148492 14.58337025 -38.39935583 7.34670379 -30.25419617 2.87263489 C-20.8118004 -1.22272047 -10.08306785 -0.08319838 0 0 Z " fill="#DCDFDF" transform="translate(94.555419921875,397.432373046875)"/>
<path d="M0 0 C4.3436631 4.14532232 7.07120767 8.32077815 9 14 C9 15.32 9 16.64 9 18 C9.66 18.33 10.32 18.66 11 19 C8.70967689 19.83719383 6.41789043 20.6698929 4.125 21.5 C3.47402344 21.73847656 2.82304687 21.97695312 2.15234375 22.22265625 C-2.7734375 24 -2.7734375 24 -5 24 C-5.09796875 23.34773438 -5.1959375 22.69546875 -5.296875 22.0234375 C-6.23852353 16.5196642 -7.15067828 12.25451348 -11 8 C-16.61133516 4.34817871 -22.47041482 3.01921558 -29 2 C-29.99362549 1.83830322 -30.98725098 1.67660645 -32.01098633 1.51000977 C-35.33754273 0.98323936 -38.66741589 0.48713165 -42 0 C-43.15032715 -0.17031738 -44.3006543 -0.34063477 -45.48583984 -0.51611328 C-54.96978447 -1.88792348 -64.46903123 -3.01702203 -74 -4 C-74.74586365 -4.07732361 -75.49172729 -4.15464722 -76.26019287 -4.23431396 C-101.98921005 -6.8519097 -127.71550475 -7.28819767 -153.55438995 -7.31007385 C-155.96080842 -7.31246112 -158.36720772 -7.31777697 -160.77362061 -7.32336426 C-187.41371859 -7.36855517 -213.75058303 -6.10340045 -240.1875 -2.625 C-241.44675293 -2.46209473 -241.44675293 -2.46209473 -242.73144531 -2.29589844 C-247.73656232 -1.64831068 -252.73915433 -0.98377421 -257.74017334 -0.30529785 C-259.85829374 -0.01914422 -261.97708241 0.26131655 -264.09619141 0.54003906 C-267.56787803 1.00377762 -271.03416107 1.49463682 -274.5 2 C-275.95635864 2.19408447 -275.95635864 2.19408447 -277.44213867 2.39208984 C-284.86977701 3.54261545 -290.40721008 6.07480112 -295.4375 11.75 C-297.40306911 15.83838375 -297.80041404 19.5093158 -298 24 C-299.77260631 23.54857225 -301.5430368 23.08859477 -303.3125 22.625 C-304.79169922 22.24214844 -304.79169922 22.24214844 -306.30078125 21.8515625 C-309 21 -309 21 -312 19 C-311.01 18.505 -311.01 18.505 -310 18 C-309.38153556 16.33219778 -308.82985386 14.63938351 -308.3125 12.9375 C-305.40477334 4.69537775 -300.51604716 -1.06363929 -292.6484375 -4.984375 C-286.95009327 -7.16958075 -281.00508014 -8.064023 -275 -9 C-273.99453125 -9.15855469 -272.9890625 -9.31710938 -271.953125 -9.48046875 C-187.25406854 -22.70226982 -94.47557129 -25.03659698 0 0 Z " fill="#75757D" transform="translate(395,97)"/>
<path d="M0 0 C0.64267822 0.00201416 1.28535645 0.00402832 1.94750977 0.00610352 C4.32185115 0.01647672 6.69608987 0.04439855 9.0703125 0.0703125 C17.0521875 0.1321875 17.0521875 0.1321875 25.1953125 0.1953125 C25.1953125 14.3853125 25.1953125 28.5753125 25.1953125 43.1953125 C24.8653125 43.1953125 24.5353125 43.1953125 24.1953125 43.1953125 C24.1953125 32.3053125 24.1953125 21.4153125 24.1953125 10.1953125 C19.2453125 10.2778125 14.2953125 10.3603125 9.1953125 10.4453125 C7.64972656 10.46110352 6.10414062 10.47689453 4.51171875 10.49316406 C-3.91342654 10.70138175 -10.1802901 11.20476108 -16.828125 16.94140625 C-17.49714844 17.77865234 -17.49714844 17.77865234 -18.1796875 18.6328125 C-18.64117187 19.18839844 -19.10265625 19.74398438 -19.578125 20.31640625 C-23.28852574 26.00017299 -23.62800626 31.5910566 -22.8046875 38.1953125 C-21.04916851 44.4153747 -18.33854965 48.29179123 -12.8671875 51.7578125 C-7.49543686 54.76292815 -2.24891537 55.32078905 3.83745384 55.31836033 C4.94318634 55.32035138 6.04891885 55.32234243 7.18815839 55.32439381 C8.99457947 55.32002455 8.99457947 55.32002455 10.8374939 55.31556702 C12.76853688 55.31684865 12.76853688 55.31684865 14.73859084 55.31815618 C18.3051402 55.32038945 21.87165947 55.31639583 25.438205 55.31137812 C29.28680624 55.30705705 33.13540581 55.30852122 36.98400879 55.3092804 C43.64974748 55.30980458 50.31547638 55.30666879 56.98121262 55.30104256 C66.61873141 55.29291327 76.25624546 55.29031087 85.89376731 55.28905457 C101.53025511 55.2868663 117.16673769 55.28021229 132.80322266 55.27075195 C147.99202447 55.26157203 163.18082487 55.25449403 178.36962891 55.25024414 C179.77413931 55.24985006 179.77413931 55.24985006 181.20702367 55.24944801 C185.90439822 55.24814297 190.60177279 55.24687926 195.29914737 55.24563611 C234.2645394 55.2352705 273.2299256 55.21765828 312.1953125 55.1953125 C312.8553125 57.8353125 313.5153125 60.4753125 314.1953125 63.1953125 C313.04364184 63.19677906 311.89197119 63.19824562 310.70540142 63.19975662 C283.38342654 63.23543806 256.06155812 63.29164939 228.73967994 63.37323345 C225.37878121 63.38325123 222.01788198 63.3930953 218.65698242 63.40283203 C217.98787164 63.4047734 217.31876087 63.40671478 216.629374 63.40871498 C205.7870408 63.43975867 194.94472878 63.45672222 184.1023595 63.46850672 C172.98183859 63.48090604 161.86141515 63.50867827 150.74095994 63.54992557 C144.49273165 63.57261111 138.24466253 63.58821894 131.99638939 63.58719635 C126.12029787 63.58645392 120.24455917 63.60423619 114.36855888 63.63648033 C112.20739601 63.64502787 110.04619378 63.64669665 107.88502121 63.64111519 C104.9429234 63.63452664 102.00196523 63.65227185 99.0599823 63.67633057 C98.19714841 63.66857015 97.33431451 63.66080973 96.44533414 63.65281415 C91.89725776 63.66021321 91.89725776 63.66021321 88.20377064 66.04024887 C87.0973326 68.29647063 87.0973326 68.29647063 86.1953125 71.1953125 C79.9253125 71.1953125 73.6553125 71.1953125 67.1953125 71.1953125 C66.2053125 69.2153125 65.2153125 67.2353125 64.1953125 65.1953125 C61.34293221 63.76912235 58.92170689 64.07056399 55.73291016 64.06933594 C55.06914368 64.0674678 54.4053772 64.06559967 53.72149658 64.06367493 C52.27664199 64.05966659 50.83178103 64.05759569 49.38692093 64.05721283 C46.30080333 64.05379096 43.21489516 64.03240744 40.12885094 64.01198196 C34.3851912 63.97405631 28.64174846 63.94268144 22.89794922 63.94482422 C18.90121454 63.94561775 14.90523884 63.92196872 10.90870285 63.8829422 C9.3947225 63.8725686 7.88065357 63.87089361 6.36665726 63.87859344 C-5.19488123 63.93146612 -16.46642238 62.38640876 -25.2734375 54.140625 C-32.10294125 45.46436769 -34.76460085 36.0382774 -33.8046875 25.1953125 C-32.90352587 21.88933669 -31.55963354 19.12936292 -29.8046875 16.1953125 C-29.3921875 15.49535156 -28.9796875 14.79539062 -28.5546875 14.07421875 C-22.07650764 4.33854504 -11.44209996 -0.17170586 0 0 Z " fill="#D3D6D6" transform="translate(106.8046875,256.8046875)"/>
<path d="M0 0 C3.3 0 6.6 0 10 0 C10.03738281 0.90363281 10.07476562 1.80726563 10.11328125 2.73828125 C10.21189453 4.50751953 10.21189453 4.50751953 10.3125 6.3125 C10.37050781 7.48425781 10.42851563 8.65601563 10.48828125 9.86328125 C11.04227833 13.25915647 11.35591045 13.97629145 14 16 C16.01645514 16.45032499 16.01645514 16.45032499 18.27348614 16.38476086 C19.15030818 16.3942174 20.02713022 16.40367394 20.93052262 16.41341704 C21.89452117 16.40856947 22.85851972 16.40372189 23.85173035 16.39872742 C24.87518171 16.40537424 25.89863308 16.41202107 26.95309812 16.41886932 C30.39876345 16.43759216 33.84408437 16.43488775 37.28979492 16.43237305 C39.75326532 16.44138452 42.21673122 16.45171021 44.68019104 16.46325684 C49.99220554 16.48518636 55.30412166 16.49793308 60.61617088 16.50238609 C68.29651095 16.50884019 75.97673209 16.53176444 83.6570243 16.55872939 C96.11728009 16.60202822 108.57753088 16.63197726 121.0378418 16.65356445 C133.14301003 16.67456488 145.24813734 16.70183177 157.35327148 16.73754883 C158.09923221 16.73974765 158.84519293 16.74194648 159.61375853 16.74421193 C163.35596475 16.75528135 167.09817059 16.76647421 170.84037626 16.77772844 C201.89355008 16.87095736 232.94673884 16.94231312 264 17 C264 19.97 264 22.94 264 26 C176.88 26 89.76 26 0 26 C0 17.42 0 8.84 0 0 Z " fill="#F0A417" transform="translate(111,185)"/>
<path d="M0 0 C0.33 0 0.66 0 1 0 C1.0093457 0.62865967 1.01869141 1.25731934 1.02832031 1.9050293 C1.31604395 19.34162934 1.31604395 19.34162934 6 36 C6.2990625 36.78890625 6.598125 37.5778125 6.90625 38.390625 C14.18475885 56.33591406 27.32873065 67.96316719 44.5 76.3125 C55.54168545 80.73165217 66.58551901 81.43935395 78.33125305 81.39872742 C79.94702487 81.40417732 81.56279272 81.4109332 83.17855424 81.41886932 C87.5844421 81.43678333 91.99016045 81.43635132 96.39607608 81.43273985 C101.16006394 81.43211324 105.92399627 81.44876184 110.68795776 81.46325684 C118.93054433 81.48599761 127.17308877 81.49792013 135.41570473 81.50238609 C147.33296829 81.50885884 159.25015584 81.53181599 171.1673887 81.55872939 C190.50472954 81.60195541 209.84206717 81.63194605 229.17944336 81.65356445 C247.95810523 81.67458669 266.73674086 81.70187266 285.51538086 81.73754883 C286.67390673 81.73974765 287.83243261 81.74194648 289.02606533 81.74421193 C294.838351 81.7552819 300.65063642 81.76647465 306.46292174 81.77772844 C354.64192462 81.87085427 402.82094236 81.9424797 451 82 C448.74647691 84.80201454 447.57171851 85.90547685 443.96732771 86.50139666 C442.16744526 86.50237077 442.16744526 86.50237077 440.33120155 86.50336456 C439.32261092 86.51208521 439.32261092 86.51208521 438.29364473 86.52098203 C436.02992584 86.53563461 433.76728238 86.5216733 431.50357056 86.50793457 C429.86841983 86.51254152 428.23327324 86.51889305 426.59813535 86.52684355 C422.09626287 86.54359019 417.59472819 86.53526621 413.09285426 86.52289867 C408.24050875 86.51387152 403.38822252 86.52780677 398.53588867 86.53881836 C389.02395505 86.5566372 379.51214744 86.55274747 370.00020881 86.5411678 C362.26585921 86.53214166 354.53154497 86.53090595 346.79719162 86.53526306 C345.69718193 86.53587599 344.59717223 86.53648893 343.46382891 86.53712043 C341.22918928 86.53839933 338.99454965 86.53969618 336.75991003 86.5410108 C315.78473295 86.55242782 294.80962569 86.53928808 273.83446006 86.51780933 C255.84972866 86.49996221 237.8651006 86.50302059 219.88037109 86.52148438 C198.996788 86.5429142 178.1132663 86.55130286 157.22967374 86.53903532 C155.00010452 86.53776115 152.77053528 86.53650366 150.54096603 86.53526306 C148.89551709 86.53433741 148.89551709 86.53433741 147.21682674 86.53339306 C139.49984849 86.52994464 131.78290925 86.53575808 124.06593704 86.54518127 C114.64903841 86.55642719 105.23227305 86.55330785 95.81538959 86.5320583 C91.01367104 86.5215789 86.21217429 86.51737242 81.41045761 86.53065491 C77.00695713 86.54265093 72.60388218 86.53589844 68.20041983 86.5147447 C66.6148407 86.51030866 65.02922498 86.51247667 63.44366975 86.52224785 C43.77034093 86.63410081 27.37360949 80.84204109 13 67 C6.5125706 59.7167524 2.15399537 52.20224532 -1 43 C-1.31839844 42.1646875 -1.63679688 41.329375 -1.96484375 40.46875 C-6.36260298 27.33627081 -5.10096951 12.68410723 0 0 Z " fill="#D63623" transform="translate(19,406)"/>
<path d="M0 0 C75.57 0 151.14 0 229 0 C228.01 3.3 227.02 6.6 226 10 C151.75 10 77.5 10 1 10 C1 21.22 1 32.44 1 44 C0.67 44 0.34 44 0 44 C0 29.48 0 14.96 0 0 Z " fill="#D2D5D5" transform="translate(192,257)"/>
<path d="M0 0 C1.95793736 2.93690603 2.70418027 5.08709385 3.6875 8.4375 C8.98596647 24.58613495 20.43141209 38.87164819 35.51171875 46.9453125 C48.21283056 53.30565103 60.3672658 55.45189505 74.54695129 55.39872742 C75.96885814 55.40417989 77.39076046 55.41093682 78.81265563 55.41886932 C82.68267621 55.43675088 86.55250351 55.43635542 90.42255557 55.43273985 C94.60985456 55.43211238 98.79709071 55.44876975 102.98435974 55.46325684 C110.22674345 55.4859815 117.46907925 55.49791732 124.71149635 55.50238609 C135.18261755 55.50886287 145.65365238 55.53182705 156.12473866 55.55872939 C173.11610591 55.60193976 190.10746952 55.63193931 207.09887695 55.65356445 C223.59791862 55.6745914 240.09693047 55.70188146 256.59594727 55.73754883 C258.12315289 55.74084707 258.12315289 55.74084707 259.68121115 55.74421193 C264.7892455 55.75528201 269.89727957 55.76647474 275.00531352 55.77772844 C317.33684936 55.87083209 359.66840187 55.94246776 402 56 C400.25 59.875 400.25 59.875 398 61 C396.12995544 61.09730836 394.2563871 61.12919156 392.38381386 61.13142776 C390.58105899 61.13718948 390.58105899 61.13718948 388.74188483 61.1430676 C387.39617064 61.14228726 386.0504565 61.14140845 384.70474243 61.14044189 C383.28438688 61.14302413 381.86403206 61.14603689 380.44367826 61.1494453 C376.52641615 61.15753595 372.60917235 61.15930602 368.69190288 61.16004276 C364.4721685 61.16188986 360.25244371 61.16943569 356.03271484 61.17617798 C346.79678622 61.18977885 337.56086192 61.19578941 328.32492495 61.20018864 C322.55746016 61.20294942 316.78999706 61.2071866 311.02253342 61.21169281 C295.05471972 61.22389026 279.08690738 61.23418701 263.11908913 61.2375679 C261.58503237 61.23789725 261.58503237 61.23789725 260.01998457 61.23823325 C258.99481427 61.23845153 257.96964398 61.23866981 256.91340792 61.2388947 C254.8359894 61.23933817 252.75857087 61.23978473 250.68115234 61.24023438 C249.65067836 61.2404558 248.62020438 61.24067723 247.55850391 61.24090537 C230.87661284 61.24484984 214.19476554 61.26229097 197.51289137 61.2855939 C180.38630042 61.30932476 163.25973141 61.32177063 146.13312376 61.32293582 C136.5171981 61.32385187 126.90132941 61.32958615 117.28541946 61.34775543 C109.09300618 61.36318018 100.90066743 61.36826308 92.70824237 61.36001733 C88.53058597 61.35611855 84.35307956 61.35700238 80.17544174 61.37107468 C76.3444308 61.38386078 72.51368182 61.38257507 68.682671 61.37048396 C66.65361987 61.36761773 64.62456401 61.37942725 62.59554923 61.39190602 C45.05481448 61.29777019 29.68185754 55.36533863 17 43 C10.87545514 36.00331995 6.26757165 28.70071041 3 20 C2.68160156 19.15566406 2.36320312 18.31132812 2.03515625 17.44140625 C0.0385746 11.54366966 -0.35607904 6.19841285 0 0 Z " fill="#AAD540" transform="translate(42,290)"/>
<path d="M0 0 C7.26 0 14.52 0 22 0 C24.17026633 5.1355301 26.32948961 10.27327278 28.46362305 15.42358398 C29.19202899 17.17282633 29.92634389 18.91962064 30.66674805 20.66381836 C31.73242793 23.17716022 32.77626927 25.69865464 33.81640625 28.22265625 C34.14967422 28.99585709 34.4829422 29.76905792 34.8263092 30.56568909 C36.78616913 35.39534509 37.49757472 38.80282594 36 44 C32.87047425 46.0863505 32.13949507 46.2537096 28.57617188 46.2746582 C27.23963562 46.28895622 27.23963562 46.28895622 25.87609863 46.30354309 C24.91667358 46.30263168 23.95724854 46.30172028 22.96875 46.30078125 C21.98128784 46.30506638 20.99382568 46.3093515 19.97644043 46.31376648 C17.88843554 46.31951012 15.80041063 46.32000979 13.71240234 46.31567383 C10.51234964 46.3125122 7.31321973 46.33597867 4.11328125 46.36132812 C2.08593867 46.36360089 0.0585936 46.36430472 -1.96875 46.36328125 C-3.40788757 46.37709587 -3.40788757 46.37709587 -4.87609863 46.39118958 C-5.7671228 46.38496078 -6.65814697 46.37873199 -7.57617188 46.37231445 C-8.75173645 46.37325859 -8.75173645 46.37325859 -9.9510498 46.3742218 C-12.55173198 45.89923126 -13.43292831 45.1016142 -15 43 C-15.73891667 37.06614989 -14.03851214 32.75339811 -11.71875 27.44140625 C-11.38580933 26.65225327 -11.05286865 25.86310028 -10.70983887 25.05003357 C-9.65153348 22.54905086 -8.5761161 20.05586342 -7.5 17.5625 C-6.77619802 15.86051283 -6.05352954 14.15804314 -5.33203125 12.45507812 C-3.56980475 8.29662869 -1.78459397 4.14918098 0 0 Z " fill="#FBCB08" transform="translate(460,207)"/>
<path d="M0 0 C10.23 0 20.46 0 31 0 C31 9.9 31 19.8 31 30 C25 29 25 29 22.0625 27.9375 C15.44349636 25.9112744 10.99234062 27.11574458 5.015625 30.125 C3 31 3 31 0 31 C0 20.77 0 10.54 0 0 Z " fill="#FBCB08" transform="translate(329,398)"/>
<path d="M0 0 C10.23 0 20.46 0 31 0 C31 10.23 31 20.46 31 31 C21 28 21 28 19 27 C11.23068179 26.29369834 8.12419984 28.04574551 0 31 C0 20.77 0 10.54 0 0 Z " fill="#ED5026" transform="translate(147,257)"/>
<path d="M0 0 C23.76 0 47.52 0 72 0 C71 7 71 7 70 10 C47.23 10 24.46 10 1 10 C1 20.89 1 31.78 1 43 C0.67 43 0.34 43 0 43 C0 28.81 0 14.62 0 0 Z " fill="#D8DBDB" transform="translate(375,398)"/>
<path d="M0 0 C4.73720676 1.51948141 7.41555308 3.95125068 10.0859375 8.04296875 C12.3091137 12.802846 11.34712564 16.90381376 9.8125 21.75 C7.33476457 26.19283595 4.81472682 28.39509106 0 30 C-4.27412466 30.59030743 -8.28530038 30.96060727 -12.140625 28.80078125 C-15.93786191 25.63375803 -18.62173001 22.66548385 -19.3359375 17.6328125 C-19.44875835 10.38971376 -17.72279585 7.04312478 -12.875 1.625 C-8.6035198 -0.7893149 -4.79490158 -0.6167076 0 0 Z " fill="#FACA08" transform="translate(475,163)"/>
<path d="M0 0 C0 18.15 0 36.3 0 55 C57.42 55 114.84 55 174 55 C174 55.33 174 55.66 174 56 C113.28 56 52.56 56 -10 56 C-10 38.51 -10 21.02 -10 3 C-5 0 -5 0 0 0 Z " fill="#6E6E76" transform="translate(121,114)"/>
<path d="M0 0 C7.26 0 14.52 0 22 0 C22.99 2.97 23.98 5.94 25 9 C19.78556404 10.68561267 15.02460865 11.38512698 9.5625 11.625 C8.46518555 11.68300781 8.46518555 11.68300781 7.34570312 11.7421875 C5.56416468 11.83533984 3.78211878 11.91870286 2 12 C1.4740625 13.7015625 1.4740625 13.7015625 0.9375 15.4375 C-0.14316638 18.72648463 -1.36689953 21.9184815 -2.72265625 25.1015625 C-3.03388428 25.8344751 -3.3451123 26.5673877 -3.66577148 27.32250977 C-4.29322002 28.78772745 -4.92913157 30.24935718 -5.57446289 31.70678711 C-7.63467248 36.52472244 -8.56490077 40.77292957 -9 46 C-11.86724686 45.42655063 -12.8614515 45.1385485 -15 43 C-15.63823464 37.02504744 -14.05311645 32.78684031 -11.71875 27.44140625 C-11.38580933 26.65225327 -11.05286865 25.86310028 -10.70983887 25.05003357 C-9.65153348 22.54905086 -8.5761161 20.05586342 -7.5 17.5625 C-6.77619802 15.86051283 -6.05352954 14.15804314 -5.33203125 12.45507812 C-3.56980475 8.29662869 -1.78459397 4.14918098 0 0 Z " fill="#F3A617" transform="translate(460,207)"/>
<path d="M0 0 C2.97 0 5.94 0 9 0 C9 9.24 9 18.48 9 28 C3 31 3 31 0 31 C0 20.77 0 10.54 0 0 Z " fill="#EDA216" transform="translate(329,398)"/>
<path d="M0 0 C10.23 0 20.46 0 31 0 C31 10.23 31 20.46 31 31 C30.34 30.67 29.68 30.34 29 30 C29.33 20.43 29.66 10.86 30 1 C22.08 1 14.16 1 6 1 C6 10.24 6 19.48 6 29 C4.02 29.66 2.04 30.32 0 31 C0 20.77 0 10.54 0 0 Z " fill="#C53520" transform="translate(147,257)"/>
<path d="M0 0 C-1.03688775 2.71186026 -2.06475658 5.10211615 -3.625 7.5625 C-6.21494417 14.03736043 -5.52862359 21.28145276 -4 28 C-7.28619307 25.57859458 -9.48690913 23.81023793 -11 20 C-11.70077817 15.06195847 -11.55558401 11.11116802 -9.3125 6.625 C-3.47619048 0 -3.47619048 0 0 0 Z " fill="#F3A717" transform="translate(467,163)"/>
</svg>
