<?xml version="1.0" encoding="UTF-8"?>
<svg version="1.1" xmlns="http://www.w3.org/2000/svg" width="256" height="256">
<path d="M0 0 C0.309375 1.3921875 0.309375 1.3921875 0.625 2.8125 C2.58773358 7.3624733 5.68275139 8.21121676 9.9921875 10.3828125 C24.02027892 17.92518892 32.75131961 30.29268614 40 44 C40.98742187 43.84144531 41.97484375 43.68289062 42.9921875 43.51953125 C47.04155588 42.94585375 51.03862155 42.74543542 55.125 42.6875 C55.81464844 42.65849609 56.50429687 42.62949219 57.21484375 42.59960938 C60.85615128 42.55435412 62.8492909 42.90555828 65.9609375 44.85546875 C68 47 68 47 68.5 49.625 C68 52 68 52 65 54 C60.40351188 55.40331539 55.91007674 54.90689579 51.1875 54.5625 C50.00510742 54.48418945 50.00510742 54.48418945 48.79882812 54.40429688 C46.86548471 54.27540731 44.93267836 54.13850506 43 54 C43.32613281 54.90234375 43.65226563 55.8046875 43.98828125 56.734375 C45.53491333 62.15646028 45.25135352 67.65777614 45.1875 73.25 C45.1865332 74.88195312 45.1865332 74.88195312 45.18554688 76.546875 C45.14082166 84.57753501 45.14082166 84.57753501 44 88 C44.804375 88.144375 45.60875 88.28875 46.4375 88.4375 C49 89 49 89 50 90 C51.44548686 101.08206596 43.10336779 112.51699035 36.74609375 121.01171875 C22.93877834 138.23304955 5.58120549 147.25324251 -15.78515625 151.71484375 C-19 152 -19 152 -21.37109375 151.37890625 C-23.60646588 149.48661282 -23.7006095 147.84420975 -24 145 C-24.90878906 145.04640625 -25.81757813 145.0928125 -26.75390625 145.140625 C-46.08222828 145.69569476 -62.71124537 139.11793695 -77 126 C-88.65863245 114.82876857 -98.23424655 98.85305902 -99.14526367 82.37207031 C-99.16997483 79.33126911 -99.18565479 76.29090901 -99.1875 73.25 C-99.19974609 72.20328125 -99.21199219 71.1565625 -99.22460938 70.078125 C-99.23651471 63.72861236 -98.62523406 58.14120063 -97 52 C-100.465 50.02 -100.465 50.02 -104 48 C-104.60641681 37.89798344 -97.38733754 29.29805618 -91 22 C-72.22036048 0.98971309 -26.91659943 -19.92720621 0 0 Z M-1 9 C-1.99 10.98 -2.98 12.96 -4 15 C-7.89214824 15.16562333 -11.11906721 15.03965391 -14.875 14 C-31.19222653 10.17694862 -48.63997907 13.63192402 -62.96484375 21.95703125 C-72.57955993 28.42871279 -79.56264094 36.37488299 -85.359375 46.3359375 C-88.58784675 51.85622561 -88.58784675 51.85622561 -91.6875 52.9375 C-94.1315792 53.73171138 -94.1315792 53.73171138 -94.65014648 55.73413086 C-98.84091393 75.58433417 -95.56430273 94.6154482 -85 112 C-74.26191825 127.30085027 -59.21524136 136.99861911 -41 141 C-39.515 141.3403125 -39.515 141.3403125 -38 141.6875 C-33.33791947 142.17313339 -28.68255823 142.07498759 -24 142 C-23.505 138.04 -23.505 138.04 -23 134 C-21.93523437 133.79246094 -20.87046875 133.58492188 -19.7734375 133.37109375 C-1.56666197 129.60482949 12.90751015 122.12060701 24 106.8125 C28.12456365 100.47010528 31.1640328 94.34386879 33 87 C35.64 87 38.28 87 41 87 C42.29046377 82.45473557 42.19093845 78.0701973 42.1875 73.375 C42.1884668 72.03163574 42.1884668 72.03163574 42.18945312 70.66113281 C42.14041539 64.53364469 41.58486494 58.94324353 40 53 C35.58900685 52.5919852 35.58900685 52.5919852 31.8125 54.65063477 C29.51141315 57.63330701 29.58166384 59.11277596 29.75 62.83984375 C29.78407959 63.97929443 29.81815918 65.11874512 29.85327148 66.29272461 C29.90169189 67.49550049 29.9501123 68.69827637 30 69.9375 C30.34471379 88.07851055 30.34471379 88.07851055 26 97 C25.51402344 98.01578125 25.02804688 99.0315625 24.52734375 100.078125 C17.08341319 114.08608889 5.51626458 123.35852907 -9.4375 128.4375 C-26.62884303 132.81140365 -43.61590326 130.7916471 -58.875 121.75 C-70.97008033 113.40547129 -79.37519848 102.12807474 -83.33984375 87.8828125 C-86.25047676 70.76346806 -84.28668922 54.70567573 -75.02734375 39.84765625 C-67.09030564 28.69909984 -54.93076188 19.48131538 -41.3671875 16.40234375 C-22.90781888 14.19664193 -6.46181538 15.94374298 9 27 C14.67082394 31.76089231 18.91863125 36.6188697 22.5625 43.0625 C24.73327331 46.87367855 24.73327331 46.87367855 28.4296875 48.9140625 C30.68911344 49.16041735 32.74118181 49.22024758 35 49 C36.25836313 47.29433834 36.25836313 47.29433834 37 45 C31.96377864 29.84220206 18.07986301 17.95885513 4.3125 10.9375 C1.7654329 9.56749295 1.7654329 9.56749295 -1 9 Z M41 48 C41.33 48.66 41.66 49.32 42 50 C46.05264518 51.35088173 49.81845796 51.223454 54.0625 51.25 C54.89072266 51.270625 55.71894531 51.29125 56.57226562 51.3125 C57.76045898 51.32023437 57.76045898 51.32023437 58.97265625 51.328125 C59.69718994 51.3374707 60.42172363 51.34681641 61.16821289 51.35644531 C61.77270264 51.23881836 62.37719238 51.12119141 63 51 C63.66 50.01 64.32 49.02 65 48 C58.50550436 43.67033624 48.09641393 45.29660422 41 48 Z M28 52 C28.33 52.66 28.66 53.32 29 54 C29.33 53.34 29.66 52.68 30 52 C29.34 52 28.68 52 28 52 Z " fill="#FDBC5C" transform="translate(155,55)"/>
<path d="M0 0 C0.309375 1.3921875 0.309375 1.3921875 0.625 2.8125 C2.58773358 7.3624733 5.68275139 8.21121676 9.9921875 10.3828125 C24.02027892 17.92518892 32.75131961 30.29268614 40 44 C40.98742187 43.84144531 41.97484375 43.68289062 42.9921875 43.51953125 C47.04155588 42.94585375 51.03862155 42.74543542 55.125 42.6875 C55.81464844 42.65849609 56.50429687 42.62949219 57.21484375 42.59960938 C60.85615128 42.55435412 62.8492909 42.90555828 65.9609375 44.85546875 C68 47 68 47 68.5 49.625 C68 52 68 52 65 54 C60.40351188 55.40331539 55.91007674 54.90689579 51.1875 54.5625 C50.00510742 54.48418945 50.00510742 54.48418945 48.79882812 54.40429688 C46.86548471 54.27540731 44.93267836 54.13850506 43 54 C43.32613281 54.90234375 43.65226563 55.8046875 43.98828125 56.734375 C45.53491333 62.15646028 45.25135352 67.65777614 45.1875 73.25 C45.1865332 74.88195312 45.1865332 74.88195312 45.18554688 76.546875 C45.14082166 84.57753501 45.14082166 84.57753501 44 88 C44.804375 88.144375 45.60875 88.28875 46.4375 88.4375 C49 89 49 89 50 90 C51.44548686 101.08206596 43.10336779 112.51699035 36.74609375 121.01171875 C22.93877834 138.23304955 5.58120549 147.25324251 -15.78515625 151.71484375 C-19 152 -19 152 -21.37109375 151.37890625 C-23.60646588 149.48661282 -23.7006095 147.84420975 -24 145 C-24.90878906 145.04640625 -25.81757813 145.0928125 -26.75390625 145.140625 C-46.08222828 145.69569476 -62.71124537 139.11793695 -77 126 C-88.65863245 114.82876857 -98.23424655 98.85305902 -99.14526367 82.37207031 C-99.16997483 79.33126911 -99.18565479 76.29090901 -99.1875 73.25 C-99.19974609 72.20328125 -99.21199219 71.1565625 -99.22460938 70.078125 C-99.23651471 63.72861236 -98.62523406 58.14120063 -97 52 C-100.465 50.02 -100.465 50.02 -104 48 C-104.60641681 37.89798344 -97.38733754 29.29805618 -91 22 C-72.22036048 0.98971309 -26.91659943 -19.92720621 0 0 Z M-1 9 C-1.99 10.98 -2.98 12.96 -4 15 C-7.89214824 15.16562333 -11.11906721 15.03965391 -14.875 14 C-31.19222653 10.17694862 -48.63997907 13.63192402 -62.96484375 21.95703125 C-72.57955993 28.42871279 -79.56264094 36.37488299 -85.359375 46.3359375 C-88.58784675 51.85622561 -88.58784675 51.85622561 -91.6875 52.9375 C-94.1315792 53.73171138 -94.1315792 53.73171138 -94.65014648 55.73413086 C-98.84091393 75.58433417 -95.56430273 94.6154482 -85 112 C-74.26191825 127.30085027 -59.21524136 136.99861911 -41 141 C-39.515 141.3403125 -39.515 141.3403125 -38 141.6875 C-33.33791947 142.17313339 -28.68255823 142.07498759 -24 142 C-23.505 138.04 -23.505 138.04 -23 134 C-21.93523437 133.79246094 -20.87046875 133.58492188 -19.7734375 133.37109375 C-1.56666197 129.60482949 12.90751015 122.12060701 24 106.8125 C28.12456365 100.47010528 31.1640328 94.34386879 33 87 C35.64 87 38.28 87 41 87 C42.29046377 82.45473557 42.19093845 78.0701973 42.1875 73.375 C42.1884668 72.03163574 42.1884668 72.03163574 42.18945312 70.66113281 C42.14041539 64.53364469 41.58486494 58.94324353 40 53 C35.82478403 52.56075199 35.82478403 52.56075199 32.3125 54.4375 C31.879375 54.953125 31.44625 55.46875 31 56 C29.515 56.495 29.515 56.495 28 57 C28.33 55.68 28.66 54.36 29 53 C29.66 53 30.32 53 31 53 C31 52.34 31 51.68 31 51 C25.555 50.505 25.555 50.505 20 50 C8.34995444 67.99821757 8.34995444 67.99821757 1 88 C2.63263081 75.14303236 8.90854663 62.98954758 16.75 52.78515625 C18.19119421 51.09016492 18.19119421 51.09016492 18 49 C5.61208431 48.31740056 -5.45198202 50.3780433 -16 57 C-16.33 57 -16.66 57 -17 57 C-8.81727573 51.0675249 -1.1280162 49.4811984 8.8125 48.75 C9.84826172 48.65976563 10.88402344 48.56953125 11.95117188 48.4765625 C19.58457614 47.86152538 19.58457614 47.86152538 23 49 C25.06145107 49.068991 27.12501401 49.08467727 29.1875 49.0625 C30.27417969 49.05347656 31.36085938 49.04445312 32.48046875 49.03515625 C33.31191406 49.02355469 34.14335937 49.01195312 35 49 C36.25836313 47.29433834 36.25836313 47.29433834 37 45 C31.96377864 29.84220206 18.07986301 17.95885513 4.3125 10.9375 C1.7654329 9.56749295 1.7654329 9.56749295 -1 9 Z M41 48 C41.33 48.66 41.66 49.32 42 50 C46.05264518 51.35088173 49.81845796 51.223454 54.0625 51.25 C54.89072266 51.270625 55.71894531 51.29125 56.57226562 51.3125 C57.76045898 51.32023437 57.76045898 51.32023437 58.97265625 51.328125 C59.69718994 51.3374707 60.42172363 51.34681641 61.16821289 51.35644531 C61.77270264 51.23881836 62.37719238 51.12119141 63 51 C63.66 50.01 64.32 49.02 65 48 C58.50550436 43.67033624 48.09641393 45.29660422 41 48 Z " fill="#F7BE67" transform="translate(155,55)"/>
<path d="M0 0 C1 3 1 3 0 6 C0.804375 6.144375 1.60875 6.28875 2.4375 6.4375 C5 7 5 7 6 8 C7.44548686 19.08206596 -0.89663221 30.51699035 -7.25390625 39.01171875 C-21.06122166 56.23304955 -38.41879451 65.25324251 -59.78515625 69.71484375 C-63.06065487 70.00538008 -64.40238015 69.96390099 -67 68 C-67.93580311 65.12060581 -68.37245106 63.74490212 -67 61 C-69.31 61 -71.62 61 -74 61 C-74 60.67 -74 60.34 -74 60 C-72.02 60 -70.04 60 -68 60 C-68.061875 59.071875 -68.12375 58.14375 -68.1875 57.1875 C-68 54 -68 54 -66.9140625 52.41015625 C-64.17987046 50.39578211 -61.49369058 49.98393969 -58.1875 49.25 C-40.47045903 44.86429567 -27.43242798 35.43415633 -17.6640625 20.078125 C-15.94131302 16.89144286 -14.68543097 13.71009271 -13.4375 10.3125 C-12.2890625 7.3046875 -12.2890625 7.3046875 -11 5 C-7.3125 3.9375 -7.3125 3.9375 -4 4 C-3.34 3.01 -2.68 2.02 -2 1 C-1.505 1.495 -1.505 1.495 -1 2 C-0.67 1.34 -0.34 0.68 0 0 Z " fill="#F6BD67" transform="translate(199,137)"/>
<path d="M0 0 C11.12036467 0.24711921 20.67210084 9.36480184 28 17 C33.23170031 23.23526546 37.70434304 29.54894947 41 37 C42.48113281 36.76216797 42.48113281 36.76216797 43.9921875 36.51953125 C48.04155588 35.94585375 52.03862155 35.74543542 56.125 35.6875 C56.81464844 35.65849609 57.50429687 35.62949219 58.21484375 35.59960938 C61.85615128 35.55435412 63.8492909 35.90555828 66.9609375 37.85546875 C69 40 69 40 69.5 42.625 C69 45 69 45 66 47 C61.40351188 48.40331539 56.91007674 47.90689579 52.1875 47.5625 C51.00510742 47.48418945 51.00510742 47.48418945 49.79882812 47.40429688 C47.86548471 47.27540731 45.93267836 47.13850506 44 47 C44.48726562 48.40572266 44.48726562 48.40572266 44.984375 49.83984375 C46.37452784 54.72134335 46.29257691 59.52068372 46.25 64.5625 C46.26160156 65.94211914 46.26160156 65.94211914 46.2734375 67.34960938 C46.25920679 72.29833789 45.94470037 76.36204397 44 81 C43.67 81 43.34 81 43 81 C42.97494385 80.29504395 42.9498877 79.59008789 42.92407227 78.86376953 C42.80681958 75.61738553 42.6846885 72.37120183 42.5625 69.125 C42.52318359 68.01640625 42.48386719 66.9078125 42.44335938 65.765625 C42.19015781 59.1434301 41.75898051 52.58403955 41 46 C36.03088634 47.12697043 36.03088634 47.12697043 32 50 C31.01 50 30.02 50 29 50 C29.33 48.68 29.66 47.36 30 46 C30.66 46 31.32 46 32 46 C32 45.34 32 44.68 32 44 C27.90990919 42.64718467 25.05310333 42.43687486 21 44 C16.11696762 49.42106004 13.14383374 56.48602012 10 63 C9.16082031 64.62808594 9.16082031 64.62808594 8.3046875 66.2890625 C5.19205359 72.60752296 3.47452337 79.13087892 2 86 C1.67 86 1.34 86 1 86 C-0.49923534 71.00764659 10.03700786 53.48383368 19 42 C-1.2425207 43.59872091 -1.2425207 43.59872091 -18 54 C-17.32215185 49.95865219 -15.59938045 48.63014362 -12.27734375 46.24609375 C-5.04698897 42.28986189 1.69647715 41.34699344 9.8125 40.75 C10.84826172 40.65976563 11.88402344 40.56953125 12.95117188 40.4765625 C20.58457614 39.86152538 20.58457614 39.86152538 24 41 C26.06145107 41.068991 28.12501401 41.08467727 30.1875 41.0625 C31.27417969 41.05347656 32.36085937 41.04445312 33.48046875 41.03515625 C34.72763672 41.01775391 34.72763672 41.01775391 36 41 C37.32791324 38.09027146 37.32791324 38.09027146 36.06640625 35.65234375 C27.29530488 19.81879711 16.1654254 10.11453441 0 2 C0 1.34 0 0.68 0 0 Z M42 41 C42.33 41.66 42.66 42.32 43 43 C47.05264518 44.35088173 50.81845796 44.223454 55.0625 44.25 C55.89072266 44.270625 56.71894531 44.29125 57.57226562 44.3125 C58.76045898 44.32023437 58.76045898 44.32023437 59.97265625 44.328125 C60.69718994 44.3374707 61.42172363 44.34681641 62.16821289 44.35644531 C62.77270264 44.23881836 63.37719238 44.12119141 64 44 C64.66 43.01 65.32 42.02 66 41 C59.50550436 36.67033624 49.09641393 38.29660422 42 41 Z " fill="#838282" transform="translate(154,62)"/>
<path d="M0 0 C0.66 0 1.32 0 2 0 C1.9278125 0.63421875 1.855625 1.2684375 1.78125 1.921875 C-0.59968365 25.86348561 0.96219193 47.01999346 16.25 66.875 C31.28798715 84.20303596 51.42595613 88.65353115 73 92 C73 92.66 73 93.32 73 94 C53.35037941 94.92954841 36.60296152 90.06468264 21.3359375 77.14453125 C8.59569174 65.44821867 -2.16143849 49.17021192 -3.14526367 31.37207031 C-3.16997483 28.33126911 -3.18565479 25.29090901 -3.1875 22.25 C-3.19974609 21.20328125 -3.21199219 20.1565625 -3.22460938 19.078125 C-3.236506 12.73325833 -2.69474146 7.12374982 -1 1 C-0.67 0.67 -0.34 0.34 0 0 Z " fill="#8E8D8D" transform="translate(59,106)"/>
<path d="M0 0 C2.49220648 2.49220648 2.36442124 3.42464908 2.46484375 6.8828125 C2.33789364 13.76957519 -0.26388653 18.88170766 -3.4375 24.875 C-4.46182566 26.86994136 -5.48154085 28.86725838 -6.49609375 30.8671875 C-6.95169678 31.73456543 -7.4072998 32.60194336 -7.87670898 33.49560547 C-9.00441914 36.00985253 -9.57223039 38.286232 -10 41 C-9.278125 40.505 -8.55625 40.01 -7.8125 39.5 C-4.85151341 37.92080715 -3.28746971 37.71821688 0 38 C0.495 41.465 0.495 41.465 1 45 C6.36095277 43.41078475 11.70843973 41.81027062 17 40 C14.04282389 43.45003879 10.46937947 45.69650085 5.90234375 46.2578125 C3.75 46.3125 3.75 46.3125 0 46 C-2 44 -2 44 -2.125 41.375 C-2.08375 40.59125 -2.0425 39.8075 -2 39 C-2.68707031 39.49371094 -3.37414062 39.98742187 -4.08203125 40.49609375 C-4.98308594 41.13675781 -5.88414063 41.77742188 -6.8125 42.4375 C-7.70582031 43.07558594 -8.59914063 43.71367187 -9.51953125 44.37109375 C-12 46 -12 46 -15 47 C-14.586924 39.92733279 -11.57859345 34.19844878 -8.5625 27.875 C-7.56290356 25.74781783 -6.56417375 23.62022815 -5.56640625 21.4921875 C-5.12240479 20.55745605 -4.67840332 19.62272461 -4.22094727 18.65966797 C-2.23828521 14.34070767 -0.73177136 10.98565942 -0.875 6.1875 C-0.89304688 5.39730469 -0.91109375 4.60710937 -0.9296875 3.79296875 C-0.95289063 3.20128906 -0.97609375 2.60960938 -1 2 C-8.7489324 2.91163911 -13.61703982 8.05851147 -18.55078125 13.6875 C-21.67244638 17.68852535 -24.05596792 22.0943046 -26.4375 26.5625 C-26.86256836 27.35342041 -27.28763672 28.14434082 -27.72558594 28.95922852 C-30.14381229 33.67789777 -31.66735132 38.0256542 -32.52758789 43.26538086 C-32.76143188 44.12401733 -32.76143188 44.12401733 -33 45 C-33.99 45.495 -33.99 45.495 -35 46 C-35.80670109 34.70618471 -32.69226266 22.75816457 -27 13 C-25.81585706 16.55242882 -26.30464468 17.69830562 -27.4375 21.1875 C-27.72496094 22.08855469 -28.01242188 22.98960938 -28.30859375 23.91796875 C-28.53675781 24.60503906 -28.76492187 25.29210937 -29 26 C-28.59910156 25.32195312 -28.19820313 24.64390625 -27.78515625 23.9453125 C-11.96915009 -1.94846629 -11.96915009 -1.94846629 0 0 Z " fill="#483519" transform="translate(118,93)"/>
<path d="M0 0 C0.66 0 1.32 0 2 0 C1.9278125 0.63421875 1.855625 1.2684375 1.78125 1.921875 C-0.15814812 21.42360055 -0.18591412 38.84141224 9.828125 56.31640625 C11.17561955 59.40216877 11.21529856 61.6677655 11 65 C-2.49798556 49.12874226 -4.50318347 30.05996582 -3 10 C-1.66945876 1.66945876 -1.66945876 1.66945876 0 0 Z " fill="#8A8A8A" transform="translate(59,106)"/>
<path d="M0 0 C-1.36350143 2.79645314 -2.83782962 5.48524486 -4.42578125 8.16015625 C-11.71041649 20.51549372 -17.96276994 31.85095265 -21 46 C-21.33 46 -21.66 46 -22 46 C-23.49923534 31.00764659 -12.96299214 13.48383368 -4 2 C-24.2425207 3.59872091 -24.2425207 3.59872091 -41 14 C-40.32215185 9.95865219 -38.59938045 8.63014362 -35.27734375 6.24609375 C-28.0077764 2.26840596 -21.28564575 1.37405959 -13.125 0.8125 C-12.08085937 0.73064453 -11.03671875 0.64878906 -9.9609375 0.56445312 C-2.63727679 0 -2.63727679 0 0 0 Z " fill="#5C4420" transform="translate(177,102)"/>
<path d="M0 0 C0.86963379 0.23771118 0.86963379 0.23771118 1.75683594 0.48022461 C5.21220398 1.28088618 8.71910303 1.37223082 12.25 1.5625 C12.99507812 1.60568359 13.74015625 1.64886719 14.5078125 1.69335938 C16.338349 1.79896725 18.16915176 1.89994201 20 2 C20 2.33 20 2.66 20 3 C14.06 3.495 14.06 3.495 8 4 C8 4.33 8 4.66 8 5 C6.02 5 4.04 5 2 5 C2.48726562 6.40572266 2.48726562 6.40572266 2.984375 7.83984375 C4.37452784 12.72134335 4.29257691 17.52068372 4.25 22.5625 C4.25773438 23.48224609 4.26546875 24.40199219 4.2734375 25.34960938 C4.25920679 30.29833789 3.94470037 34.36204397 2 39 C1.67 39 1.34 39 1 39 C0.97494385 38.29504395 0.9498877 37.59008789 0.92407227 36.86376953 C0.80681958 33.61738553 0.6846885 30.37120183 0.5625 27.125 C0.52318359 26.01640625 0.48386719 24.9078125 0.44335938 23.765625 C0.21683656 17.8411822 -0.13327699 11.99783764 -0.89868164 6.11669922 C-1.00622016 3.8700512 -0.65273452 2.14179464 0 0 Z " fill="#9E9E9D" transform="translate(196,104)"/>
<path d="M0 0 C11.27041393 0.25045364 20.42189222 9.47641098 28 17 C29.77214486 18.94776281 31.39322336 20.91119036 33 23 C32.67 23.66 32.34 24.32 32 25 C31.01 25 30.02 25 29 25 C27.81640625 23.56640625 27.81640625 23.56640625 26.5625 21.5625 C20.0779574 12.49377088 9.78598562 6.91225656 0 2 C0 1.34 0 0.68 0 0 Z " fill="#888888" transform="translate(154,62)"/>
<path d="M0 0 C0.66 0 1.32 0 2 0 C1.13359864 11.01241724 0.06148762 22.00502785 -1 33 C-3.44653549 30.55346451 -3.2562983 29.88462348 -3.265625 26.52734375 C-3.26820312 25.62693359 -3.27078125 24.72652344 -3.2734375 23.79882812 C-3.26570313 22.85458984 -3.25796875 21.91035156 -3.25 20.9375 C-3.25773437 20.02033203 -3.26546875 19.10316406 -3.2734375 18.15820312 C-3.23112118 3.23112118 -3.23112118 3.23112118 0 0 Z " fill="#6F6F6F" transform="translate(59,106)"/>
<path d="M0 0 C2.475 0.495 2.475 0.495 5 1 C4.01 1.33 3.02 1.66 2 2 C2 3.65 2 5.3 2 7 C0.906875 7.103125 -0.18625 7.20625 -1.3125 7.3125 C-5.048881 8.00911341 -5.66677647 8.31679294 -8 11 C-8.99 11 -9.98 11 -11 11 C-10.67 9.68 -10.34 8.36 -10 7 C-9.34 7 -8.68 7 -8 7 C-8 6.34 -8 5.68 -8 5 C-11.3 4.67 -14.6 4.34 -18 4 C-16 2 -16 2 -12.3046875 1.8046875 C-10.82799892 1.817991 -9.35137642 1.84185165 -7.875 1.875 C-7.12089844 1.88402344 -6.36679688 1.89304687 -5.58984375 1.90234375 C-3.72642746 1.9259313 -1.86317407 1.96180281 0 2 C0 1.34 0 0.68 0 0 Z " fill="#847F77" transform="translate(194,101)"/>
<path d="M0 0 C2.375 -0.125 2.375 -0.125 5 0 C7 2 7 2 7.3125 4.5 C7.209375 5.325 7.10625 6.15 7 7 C1.53564906 10.64290063 -4.93549868 10.7962822 -11.29296875 9.55078125 C-13.20563464 9.07346109 -15.10452305 8.54156484 -17 8 C-17 7.67 -17 7.34 -17 7 C-15.80761719 6.96261719 -14.61523438 6.92523438 -13.38671875 6.88671875 C-11.820281 6.82105968 -10.25387616 6.75461232 -8.6875 6.6875 C-7.90181641 6.66494141 -7.11613281 6.64238281 -6.30664062 6.61914062 C-5.54931641 6.58369141 -4.79199219 6.54824219 -4.01171875 6.51171875 C-3.31522217 6.48553467 -2.61872559 6.45935059 -1.90112305 6.43237305 C0.49350359 5.88776232 1.43272547 4.84170838 3 3 C2.01 2.01 1.02 1.02 0 0 Z " fill="#878686" transform="translate(216,100)"/>
<path d="M0 0 C0.78503906 0.10957031 1.57007812 0.21914062 2.37890625 0.33203125 C3.25160156 0.44804687 4.12429687 0.5640625 5.0234375 0.68359375 C6.46783203 0.91175781 6.46783203 0.91175781 7.94140625 1.14453125 C9.58689453 1.40363281 9.58689453 1.40363281 11.265625 1.66796875 C14.16131205 2.14087385 17.05228585 2.63322644 19.94140625 3.14453125 C19.94140625 3.80453125 19.94140625 4.46453125 19.94140625 5.14453125 C3.232978 5.51355175 3.232978 5.51355175 -5.05859375 3.14453125 C-3.41951415 1.11793763 -2.66037803 0.18678176 0 0 Z " fill="#838383" transform="translate(112.05859375,194.85546875)"/>
<path d="M0 0 C6.75 0.75 6.75 0.75 9 3 C8.625 6.125 8.625 6.125 8 9 C5.6875 9.6875 5.6875 9.6875 3 10 C1.1875 9 1.1875 9 0 7 C-0.1875 3.3125 -0.1875 3.3125 0 0 Z " fill="#957340" transform="translate(177,168)"/>
<path d="M0 0 C3.125 0.375 3.125 0.375 6 1 C6.6875 3.3125 6.6875 3.3125 7 6 C5.875 7.875 5.875 7.875 4 9 C-0.42105263 8.57894737 -0.42105263 8.57894737 -2 7 C-2.1875 4.5625 -2.1875 4.5625 -2 2 C-1.34 1.34 -0.68 0.68 0 0 Z " fill="#8F6F3E" transform="translate(193,146)"/>
<path d="M0 0 C7.05143532 0.15669856 12.62711436 3.55012365 18 8 C18 8.99 18 9.98 18 11 C14.51354309 10.34628933 11.99711976 8.93113107 9 7.0625 C6.0502223 5.23237877 3.13171952 3.5006156 0 2 C0 1.34 0 0.68 0 0 Z " fill="#878786" transform="translate(154,62)"/>
<path d="M0 0 C3 0.125 3 0.125 4 1.125 C4.125 4.125 4.125 4.125 4 7.125 C3 8.125 3 8.125 -0.0625 8.1875 C-1.031875 8.166875 -2.00125 8.14625 -3 8.125 C-3.38063221 5.7989143 -3.71269945 3.46444736 -4 1.125 C-3 0.125 -3 0.125 0 0 Z " fill="#BE9049" transform="translate(148,190.875)"/>
<path d="M0 0 C0.33 2.31 0.66 4.62 1 7 C6.36095277 5.41078475 11.70843973 3.81027062 17 2 C14.04282389 5.45003879 10.46937947 7.69650085 5.90234375 8.2578125 C3.75 8.3125 3.75 8.3125 0 8 C-2 6 -2 6 -2.125 3.375 C-2.08375 2.59125 -2.0425 1.8075 -2 1 C-4.31 2.32 -6.62 3.64 -9 5 C-9.33 4.34 -9.66 3.68 -10 3 C-6.48812804 0.59185923 -4.27343092 -0.36629408 0 0 Z " fill="#6B5025" transform="translate(118,131)"/>
<path d="M0 0 C0.72832031 -0.00773437 1.45664063 -0.01546875 2.20703125 -0.0234375 C7.62157931 -0.00342069 7.62157931 -0.00342069 9.875 2.25 C6.36321216 3.33187107 3.09947434 3.38346699 -0.5625 3.375 C-1.67496094 3.37757812 -2.78742188 3.38015625 -3.93359375 3.3828125 C-6.78877492 3.26399223 -9.35007946 2.90353269 -12.125 2.25 C-8.31419392 -0.2639349 -4.39858054 -0.04721196 0 0 Z " fill="#868685" transform="translate(210.125,97.75)"/>
<path d="M0 0 C2.64 0.66 5.28 1.32 8 2 C8 2.66 8 3.32 8 4 C6.68 4 5.36 4 4 4 C4.99 5.485 4.99 5.485 6 7 C4.68 7.33 3.36 7.66 2 8 C2.99 9.485 2.99 9.485 4 11 C0.75728494 10.4409112 -0.93057424 9.5867822 -3 7 C-3 6.34 -3 5.68 -3 5 C-1.68 5 -0.36 5 1 5 C0.67 3.35 0.34 1.7 0 0 Z " fill="#5A4A32" transform="translate(59,93)"/>
<path d="M0 0 C0.66 0.33 1.32 0.66 2 1 C0.56354149 2.60509934 -0.87420706 4.20904424 -2.3125 5.8125 C-3.11300781 6.70582031 -3.91351563 7.59914063 -4.73828125 8.51953125 C-8.64426354 12.80329421 -8.64426354 12.80329421 -10 14 C-10.66 14 -11.32 14 -12 14 C-12 14.66 -12 15.32 -12 16 C-12.66 16 -13.32 16 -14 16 C-12.34136495 11.67495164 -9.128959 8.90581175 -5.875 5.75 C-5.31167969 5.19570312 -4.74835938 4.64140625 -4.16796875 4.0703125 C-2.78313972 2.70895515 -1.39216796 1.35385141 0 0 Z " fill="#FED390" transform="translate(75,66)"/>
<path d="M0 0 C1.65 0 3.3 0 5 0 C6.4606285 2.64738916 7 3.89448334 7 7 C5.02 7.33 3.04 7.66 1 8 C-0.42944945 5.64561267 -1.08661261 4.51967567 -0.625 1.75 C-0.41875 1.1725 -0.2125 0.595 0 0 Z " fill="#574831" transform="translate(98,59)"/>
<path d="M0 0 C1.65 0 3.3 0 5 0 C5.33 1.65 5.66 3.3 6 5 C6.66 5 7.32 5 8 5 C8 5.66 8 6.32 8 7 C6.68 6.67 5.36 6.34 4 6 C3.67 6.66 3.34 7.32 3 8 C0 3.375 0 3.375 0 0 Z " fill="#A27D43" transform="translate(155,187)"/>
<path d="M0 0 C2.0625 1.75 2.0625 1.75 4 4 C3.75 6.25 3.75 6.25 3 8 C1.35 8.33 -0.3 8.66 -2 9 C-5 4.25 -5 4.25 -5 2 C-2.00667261 2.9977758 -1.05233685 3.7522025 1 6 C0.67 4.02 0.34 2.04 0 0 Z " fill="#604F33" transform="translate(91,63)"/>
<path d="M0 0 C1.65 0.33 3.3 0.66 5 1 C5 1.66 5 2.32 5 3 C3.68 2.67 2.36 2.34 1 2 C1 2.66 1 3.32 1 4 C2.32 4 3.64 4 5 4 C4.67 5.65 4.34 7.3 4 9 C2.35 8.67 0.7 8.34 -1 8 C-1 7.34 -1 6.68 -1 6 C0.32 6.33 1.64 6.66 3 7 C3 6.34 3 5.68 3 5 C1.68 4.67 0.36 4.34 -1 4 C-0.67 2.68 -0.34 1.36 0 0 Z " fill="#5C4C32" transform="translate(122,54)"/>
<path d="M0 0 C0.66 0.66 1.32 1.32 2 2 C1.625 4.625 1.625 4.625 1 7 C1.66 7.33 2.32 7.66 3 8 C1.71034824 9.37562854 0.37310707 10.70766393 -1 12 C-1.66 12 -2.32 12 -3 12 C-2.49202991 7.6822542 -1.80317221 3.96697886 0 0 Z " fill="#433217" transform="translate(106,128)"/>
<path d="M0 0 C0.66 0.33 1.32 0.66 2 1 C-9.73786408 14.36893204 -9.73786408 14.36893204 -13 16 C-11.57699887 11.31095412 -8.84303666 8.48389525 -5.375 5.1875 C-4.859375 4.68541016 -4.34375 4.18332031 -3.8125 3.66601562 C-2.54840846 2.43703773 -1.27511194 1.21753999 0 0 Z " fill="#FED699" transform="translate(92,81)"/>
<path d="M0 0 C1.65 0.33 3.3 0.66 5 1 C4.01 1.33 3.02 1.66 2 2 C2 3.65 2 5.3 2 7 C-0.64 6.67 -3.28 6.34 -6 6 C-6 5.34 -6 4.68 -6 4 C-4.02 3.34 -2.04 2.68 0 2 C0 1.34 0 0.68 0 0 Z " fill="#525251" transform="translate(194,101)"/>
<path d="M0 0 C5.75 0.875 5.75 0.875 8 2 C8 2.66 8 3.32 8 4 C7.01 4.33 6.02 4.66 5 5 C4.01 6.485 4.01 6.485 3 8 C0.37613513 4.93882432 0 4.26826873 0 0 Z " fill="#614F34" transform="translate(65,84)"/>
<path d="M0 0 C2.625 0.375 2.625 0.375 5 1 C5.33 1.99 5.66 2.98 6 4 C4.35 3.67 2.7 3.34 1 3 C0.67 4.32 0.34 5.64 0 7 C1.32 7 2.64 7 4 7 C4 7.66 4 8.32 4 9 C-0.875 8.125 -0.875 8.125 -2 7 C-2.1875 4.5625 -2.1875 4.5625 -2 2 C-1.34 1.34 -0.68 0.68 0 0 Z " fill="#5F4E33" transform="translate(145,57)"/>
<path d="M0 0 C0.99 0.33 1.98 0.66 3 1 C3.33 3.31 3.66 5.62 4 8 C1.69 8 -0.62 8 -3 8 C-1.125 2.25 -1.125 2.25 0 0 Z " fill="#5B4B32" transform="translate(134,55)"/>
<path d="M0 0 C0.33 0 0.66 0 1 0 C1.05451714 2.04136395 1.09302485 4.08315856 1.125 6.125 C1.14820313 7.26195312 1.17140625 8.39890625 1.1953125 9.5703125 C0.99672109 13.05757767 0.2524801 15.7553862 -1 19 C-1.33 19 -1.66 19 -2 19 C-1.8595017 16.2079699 -1.71284617 13.41650204 -1.5625 10.625 C-1.52318359 9.8309375 -1.48386719 9.036875 -1.44335938 8.21875 C-1.11328125 2.2265625 -1.11328125 2.2265625 0 0 Z " fill="#555555" transform="translate(199,124)"/>
<path d="M0 0 C2.0625 0.4375 2.0625 0.4375 4 1 C3.67 2.65 3.34 4.3 3 6 C1.35 5.67 -0.3 5.34 -2 5 C-1.125 1.125 -1.125 1.125 0 0 Z " fill="#F2B456" transform="translate(194,147)"/>
<path d="M0 0 C1 2 1 2 2 5 C2.66 5 3.32 5 4 5 C4 5.66 4 6.32 4 7 C2.68 7.33 1.36 7.66 0 8 C-4 3.25 -4 3.25 -4 1 C-2 0 -2 0 0 0 Z " fill="#544630" transform="translate(82,69)"/>
<path d="M0 0 C1.67542976 0.28604898 3.34385343 0.61781233 5 1 C4.60196439 3.88575819 4.20990931 4.82189513 1.9375 6.75 C1.298125 7.1625 0.65875 7.575 0 8 C-0.38063221 5.6739143 -0.71269945 3.33944736 -1 1 C-0.67 0.67 -0.34 0.34 0 0 Z " fill="#A07C42" transform="translate(135,193)"/>
<path d="M0 0 C1.98 0.495 1.98 0.495 4 1 C4 2.65 4 4.3 4 6 C2.35 5.67 0.7 5.34 -1 5 C-0.67 3.35 -0.34 1.7 0 0 Z " fill="#F5B657" transform="translate(180,170)"/>
<path d="M0 0 C0.66 0.99 1.32 1.98 2 3 C0.35 6.3 -1.3 9.6 -3 13 C-3.66 12.34 -4.32 11.68 -5 11 C-3.35 7.37 -1.7 3.74 0 0 Z " fill="#3E2E15" transform="translate(164,118)"/>
<path d="M0 0 C0.66 0.33 1.32 0.66 2 1 C3.17312834 6.59491979 3.17312834 6.59491979 3 9 C1.51171875 10.7578125 1.51171875 10.7578125 0 12 C-0.19477739 10.37585622 -0.38059458 8.75063577 -0.5625 7.125 C-0.66691406 6.22007813 -0.77132812 5.31515625 -0.87890625 4.3828125 C-1 2 -1 2 0 0 Z " fill="#838282" transform="translate(196,106)"/>
<path d="M0 0 C3.37462715 0.54723683 5.08235 1.0549 8 3 C8 3.99 8 4.98 8 6 C4.65750371 5.40312566 2.53563658 4.26396123 0 2 C0 1.34 0 0.68 0 0 Z " fill="#797979" transform="translate(164,67)"/>
<path d="M0 0 C2.97 0.495 2.97 0.495 6 1 C6 1.66 6 2.32 6 3 C5.34 3 4.68 3 4 3 C3.67 3.99 3.34 4.98 3 6 C1.68 5.67 0.36 5.34 -1 5 C-0.67 3.35 -0.34 1.7 0 0 Z " fill="#E0A852" transform="translate(146,59)"/>
<path d="M0 0 C1.27875 -0.061875 2.5575 -0.12375 3.875 -0.1875 C4.95394531 -0.23970703 4.95394531 -0.23970703 6.0546875 -0.29296875 C6.69664063 -0.19628906 7.33859375 -0.09960938 8 0 C8.66 0.99 9.32 1.98 10 3 C3.375 3.125 3.375 3.125 0 2 C0 1.34 0 0.68 0 0 Z " fill="#7C7C7C" transform="translate(101,194)"/>
<path d="M0 0 C-1.98 0.99 -1.98 0.99 -4 2 C-3.01 3.485 -3.01 3.485 -2 5 C-4.88575819 4.60196439 -5.82189513 4.20990931 -7.75 1.9375 C-8.1625 1.298125 -8.575 0.65875 -9 0 C-3.375 -1.125 -3.375 -1.125 0 0 Z " fill="#433A2D" transform="translate(65,99)"/>
<path d="M0 0 C1.99897128 0.33944795 3.99875639 0.67421616 6 1 C6 1.33 6 1.66 6 2 C-4.55808656 2.18451025 -4.55808656 2.18451025 -9 1 C-5.58651542 -1.14923103 -3.84227079 -1.00630902 0 0 Z " fill="#9E9E9D" transform="translate(207,99)"/>
<path d="M0 0 C1.65 1.65 3.3 3.3 5 5 C4.67 5.66 4.34 6.32 4 7 C3.01 7 2.02 7 1 7 C-0.6875 4.5 -0.6875 4.5 -2 2 C-1.34 2 -0.68 2 0 2 C0 1.34 0 0.68 0 0 Z " fill="#969595" transform="translate(182,80)"/>
<path d="M0 0 C0.66 0.66 1.32 1.32 2 2 C1.57347992 5.83868076 -0.45335584 9.5032393 -2 13 C-3.18414294 9.44757118 -2.69535532 8.30169438 -1.5625 4.8125 C-1.27503906 3.91144531 -0.98757812 3.01039062 -0.69140625 2.08203125 C-0.46324219 1.39496094 -0.23507813 0.70789063 0 0 Z " fill="#D29D4A" transform="translate(90,111)"/>
<path d="M0 0 C0.33 0 0.66 0 1 0 C1.08090971 1.62418745 1.13914995 3.24951745 1.1875 4.875 C1.22230469 5.77992187 1.25710937 6.68484375 1.29296875 7.6171875 C1.19628906 8.40351562 1.09960938 9.18984375 1 10 C0.01 10.66 -0.98 11.32 -2 12 C-1 3.42857143 -1 3.42857143 0 0 Z " fill="#2B200F" transform="translate(119,96)"/>
<path d="M0 0 C2.03833424 1.2739589 4.03852126 2.61061923 6 4 C6 4.66 6 5.32 6 6 C1.25 5.25 1.25 5.25 -1 3 C-0.67 2.01 -0.34 1.02 0 0 Z " fill="#8E8E8E" transform="translate(86,183)"/>
<path d="M0 0 C0.99 0.33 1.98 0.66 3 1 C4.1875 4.5625 4.1875 4.5625 5 8 C4.401875 7.360625 3.80375 6.72125 3.1875 6.0625 C1.09189663 3.79689611 1.09189663 3.79689611 -2 3 C-2 2.34 -2 1.68 -2 1 C-1.34 0.67 -0.68 0.34 0 0 Z " fill="#9A7741" transform="translate(164,182)"/>
<path d="M0 0 C0.66 0 1.32 0 2 0 C0.62845496 2.95409701 -0.98863724 5.44008376 -3 8 C-3.66 7.34 -4.32 6.68 -5 6 C-3.38405168 3.95880212 -1.7143618 1.95927063 0 0 Z " fill="#362813" transform="translate(175,102)"/>
<path d="M0 0 C1.66611905 -0.042721 3.33382885 -0.04063832 5 0 C6 1 6 1 6.0625 3.5625 C6.041875 4.366875 6.02125 5.17125 6 6 C5.34 6 4.68 6 4 6 C3.67 5.01 3.34 4.02 3 3 C1.50014391 1.33289654 1.50014391 1.33289654 0 0 Z " fill="#5E5D5D" transform="translate(216,100)"/>
<path d="M0 0 C0.103125 0.5775 0.20625 1.155 0.3125 1.75 C1.09792798 4.32049158 2.30504197 5.93657284 4 8 C1.33333333 6.66666667 -1.33333333 5.33333333 -4 4 C-2.68 2.68 -1.36 1.36 0 0 Z " fill="#473D2D" transform="translate(74,74)"/>
<path d="M0 0 C1.65 0 3.3 0 5 0 C5 0.66 5 1.32 5 2 C3.68 2 2.36 2 1 2 C1 2.66 1 3.32 1 4 C1.99 4.33 2.98 4.66 4 5 C2.35 4.67 0.7 4.34 -1 4 C-0.67 2.68 -0.34 1.36 0 0 Z " fill="#655235" transform="translate(98,59)"/>
<path d="M0 0 C0.66 0 1.32 0 2 0 C2.33 2.97 2.66 5.94 3 9 C2.34 9 1.68 9 1 9 C0.67 6.03 0.34 3.06 0 0 Z " fill="#6B5636" transform="translate(114,55)"/>
<path d="M0 0 C1.98 0.99 1.98 0.99 4 2 C4 3.98 4 5.96 4 8 C0 3.375 0 3.375 0 0 Z " fill="#747474" transform="translate(185,86)"/>
<path d="M0 0 C2.31 0.33 4.62 0.66 7 1 C6.67 1.66 6.34 2.32 6 3 C4.35 3 2.7 3 1 3 C0.67 2.01 0.34 1.02 0 0 Z " fill="#807F7E" transform="translate(154,62)"/>
<path d="M0 0 C0.66 0.66 1.32 1.32 2 2 C1.75 5.0625 1.75 5.0625 1 8 C0.01 8.495 0.01 8.495 -1 9 C-0.979375 8.05125 -0.95875 7.1025 -0.9375 6.125 C-0.77448174 3.09333717 -0.77448174 3.09333717 -2 1 C-1.34 0.67 -0.68 0.34 0 0 Z " fill="#FED392" transform="translate(152,61)"/>
</svg>
